<?xml version="1.0" encoding="UTF-8"?><svg id="Layer_2" xmlns="http://www.w3.org/2000/svg" width="334" height="335.43" viewBox="0 0 334 335.43"><defs><style>.cls-1{fill:#d8c559;}.cls-2{stroke:#dbc7af;}.cls-2,.cls-3,.cls-4{fill:#dbc7af;}.cls-2,.cls-3,.cls-4,.cls-5,.cls-6,.cls-7,.cls-8{stroke-width:8px;}.cls-2,.cls-3,.cls-4,.cls-5,.cls-6,.cls-7,.cls-8,.cls-9{stroke-miterlimit:10;}.cls-3,.cls-8{stroke:#563f11;}.cls-4,.cls-7{stroke:#684e38;}.cls-5{fill:#b56966;stroke:#b78464;}.cls-6,.cls-9{fill:#353128;stroke:#353128;}.cls-7{fill:#75583d;}.cls-8{fill:#684e38;}</style></defs><g id="Abe"><path class="cls-8" d="m114.11,256.71c-7.96-14.29-21.79-39.06-25.92-51.97-9.63-30.07,1.91-50.25-4.72-82.33-2.36-11.4,2.51-26.6-17.96-38.78-30.92-18.41-41.84-7.56-57.52,11-3.95,4.68-5.76,15.51-1.71,22.06,7.6,12.29,19.85,27.99,36.41,20.32,8.01-3.71,19.99-16.12,14.72-28.33-4.26-9.84-16.42,9.03-19.53,13.98-3.36,5.35-5.63,3.05-9.76-1.73-2.92-3.38-7.05-7.23-7.75-12.81-1.64-13.28,14.95-22.66,26.34-20.94s24.73,24.09,25.55,26.48c5.5,16.07,2.55,39.1,2.28,49.15-.41,15.22,3.31,48.38,4.16,53.85,3.54,22.72,7.06,29.79,16.15,41.29,6.73,8.51,16.03,12.51,22.24,10.69,4.6-1.34-1.95-10.07-2.98-11.92Z"/><path class="cls-8" d="m131.5,147.04c-1.43,15.37-11.57,25.51-27.79,41.27-16.9,16.41-25.61,24.64-38.38,25.49-11.37.76-26.28-3.73-28.46-12.14-1.52-5.89,3.48-12.66,8.6-16.38,11.85-8.6,24.52-.95,35.07-9.1,5.06-3.91,3.97-7.09,8.6-16.38,9.35-18.77,28.77-35.87,37.06-32.77,6.78,2.53,5.45,18.31,5.29,20.03Z"/><path class="cls-8" d="m240.79,147.57c1.34,15.89,10.87,26.36,26.13,42.65,15.89,16.96,24.07,25.47,36.08,26.34,10.69.78,24.71-3.86,26.75-12.54,1.43-6.08-3.27-13.09-8.09-16.93-11.14-8.89-23.05-.98-32.97-9.41-4.76-4.04-3.73-7.33-8.09-16.93-8.79-19.4-27.04-37.07-34.83-33.87-6.37,2.62-5.13,18.92-4.98,20.7Z"/><path class="cls-8" d="m274.94,329.67c-19.05-8.48-38.86-7.76-58.35-7.79-9-.02-11.23-5.12-12.86-12.2-.26-1.12-.22-3.17.03-4.29,1.63-7.15,4.16-12.29,13.16-12.44,19.48-.32,41.19-.39,60.93-.22,9.12.08,12.03,5.86,12.78,13.94.12,1.27-.45,5.38-.49,6.73-.26,8.59-6.4,20.19-15.2,16.28Z"/><path class="cls-8" d="m96.63,330.65c19.05-8.48,38.86-7.76,58.35-7.79,9-.02,11.23-5.12,12.86-12.2.26-1.12.22-3.17-.03-4.29-1.63-7.15-4.16-12.29-13.16-12.44-19.48-.32-41.19-.39-60.93-.22-9.12.08-12.03,5.86-12.78,13.94-.12,1.27.45,5.38.49,6.73.26,8.59,6.4,20.19,15.2,16.28Z"/><path class="cls-8" d="m271.87,201.1c0,64.7-38.79,117.15-86.64,117.15s-86.64-52.45-86.64-117.15c0-10.18-2.08-41.54,18.18-71.81,5.23-7.82,31.99-45.55,68.46-45.34,46.42.27,86.64,61.91,86.64,117.15Z"/><ellipse class="cls-3" cx="189.94" cy="220.26" rx="50.38" ry="63.02"/><path d="m154.41,56.42h.58v4.01h1.91v.49h-2.49v-4.49Z"/><path d="m160.33,59.27c0,1.19-.82,1.71-1.6,1.71-.87,0-1.54-.64-1.54-1.66,0-1.08.7-1.71,1.59-1.71s1.55.67,1.55,1.66Zm-2.55.03c0,.71.41,1.24.98,1.24s.98-.53.98-1.25c0-.55-.27-1.24-.96-1.24s-.99.64-.99,1.25Z"/><path d="m161.07,58.69c0-.38,0-.71-.03-1.01h.51l.02.63h.03c.15-.43.5-.71.89-.71.07,0,.11,0,.17.02v.55c-.06-.01-.12-.02-.2-.02-.41,0-.7.31-.78.75-.01.08-.03.17-.03.27v1.72h-.58v-2.22Z"/><path d="m163.51,59.4c.01.79.52,1.12,1.1,1.12.42,0,.67-.07.89-.17l.1.42c-.21.09-.56.2-1.07.2-.99,0-1.58-.65-1.58-1.63s.57-1.74,1.51-1.74c1.05,0,1.33.93,1.33,1.52,0,.12-.01.21-.02.27h-2.26Zm1.71-.42c0-.37-.15-.95-.81-.95-.59,0-.85.55-.9.95h1.71Z"/><path d="m166.51,58.56c0-.33,0-.61-.03-.87h.51l.03.52h.02c.18-.31.48-.59,1.01-.59.44,0,.77.27.91.65h.01c.1-.18.23-.32.36-.42.19-.15.4-.23.71-.23.42,0,1.06.28,1.06,1.4v1.9h-.57v-1.83c0-.62-.23-.99-.7-.99-.33,0-.59.25-.69.53-.03.08-.05.19-.05.29v1.99h-.57v-1.93c0-.51-.23-.89-.67-.89-.36,0-.63.29-.72.59-.03.09-.05.19-.05.29v1.95h-.57v-2.35Z"/><path d="m174.11,56.78c0,.2-.14.36-.37.36-.21,0-.35-.16-.35-.36s.15-.37.36-.37.36.16.36.37Zm-.65,4.13v-3.23h.58v3.23h-.58Z"/><path d="m175.01,58.74c0-.41-.01-.75-.03-1.05h.52l.03.55h.01c.24-.39.62-.63,1.14-.63.78,0,1.36.66,1.36,1.64,0,1.16-.7,1.73-1.46,1.73-.42,0-.8-.19-.99-.51h-.01v1.75h-.58v-3.49Zm.58.86c0,.09.01.17.03.24.11.41.46.69.88.69.62,0,.98-.51.98-1.25,0-.65-.34-1.2-.96-1.2-.4,0-.77.29-.88.73-.02.07-.04.16-.04.24v.55Z"/><path d="m178.71,60.31c.17.11.48.23.77.23.42,0,.62-.21.62-.48,0-.28-.17-.43-.6-.59-.58-.21-.85-.53-.85-.91,0-.52.42-.95,1.11-.95.33,0,.61.09.79.2l-.15.43c-.13-.08-.36-.19-.66-.19-.34,0-.54.2-.54.44,0,.27.19.39.61.55.56.21.84.49.84.97,0,.57-.44.97-1.2.97-.35,0-.68-.09-.9-.22l.15-.45Z"/><path d="m184.11,60.03c0,.33,0,.63.03.88h-.52l-.03-.53h-.01c-.15.26-.49.6-1.06.6-.5,0-1.11-.28-1.11-1.41v-1.89h.58v1.79c0,.61.19,1.03.72,1.03.39,0,.66-.27.77-.53.03-.09.05-.19.05-.3v-1.98h.58v2.35Z"/><path d="m185.08,58.56c0-.33,0-.61-.03-.87h.51l.03.52h.02c.18-.31.48-.59,1.01-.59.44,0,.77.27.91.65h.01c.1-.18.23-.32.36-.42.19-.15.4-.23.71-.23.42,0,1.06.28,1.06,1.4v1.9h-.57v-1.83c0-.62-.23-.99-.7-.99-.33,0-.59.25-.69.53-.03.08-.05.19-.05.29v1.99h-.57v-1.93c0-.51-.23-.89-.67-.89-.36,0-.63.29-.72.59-.03.09-.05.19-.05.29v1.95h-.57v-2.35Z"/><path d="m150.28,58.39h.58v4.01h1.91v.49h-2.49v-4.49Z"/><path d="m156.21,61.24c0,1.19-.82,1.71-1.6,1.71-.87,0-1.54-.64-1.54-1.66,0-1.08.7-1.71,1.59-1.71s1.55.67,1.55,1.66Zm-2.55.03c0,.71.41,1.24.98,1.24s.98-.53.98-1.25c0-.55-.27-1.24-.96-1.24s-.99.64-.99,1.25Z"/><path d="m156.95,60.66c0-.38,0-.71-.03-1.01h.51l.02.63h.03c.15-.43.5-.71.89-.71.07,0,.11,0,.17.02v.55c-.06-.01-.12-.02-.2-.02-.41,0-.7.31-.78.75-.01.08-.03.17-.03.27v1.72h-.58v-2.22Z"/><path d="m159.38,61.38c.01.79.52,1.12,1.1,1.12.42,0,.67-.07.89-.17l.1.42c-.21.09-.56.2-1.07.2-.99,0-1.58-.65-1.58-1.63s.57-1.74,1.51-1.74c1.05,0,1.33.93,1.33,1.52,0,.12-.01.21-.02.27h-2.26Zm1.71-.42c0-.37-.15-.95-.81-.95-.59,0-.85.55-.9.95h1.71Z"/><path d="m152.34,52.97h.58v4.01h1.91v.49h-2.49v-4.49Z"/><path d="m158.27,55.82c0,1.19-.82,1.71-1.6,1.71-.87,0-1.54-.64-1.54-1.66,0-1.08.7-1.71,1.59-1.71s1.55.67,1.55,1.66Zm-2.55.03c0,.71.41,1.24.98,1.24s.98-.53.98-1.25c0-.55-.27-1.24-.96-1.24s-.99.64-.99,1.25Z"/><path d="m159.01,55.24c0-.38,0-.71-.03-1.01h.51l.02.63h.03c.15-.43.5-.71.89-.71.07,0,.11,0,.17.02v.55c-.06-.01-.12-.02-.2-.02-.41,0-.7.31-.78.75-.01.08-.03.17-.03.27v1.72h-.58v-2.22Z"/><path d="m161.44,55.96c.01.79.52,1.12,1.1,1.12.42,0,.67-.07.89-.17l.1.42c-.21.09-.56.2-1.07.2-.99,0-1.58-.65-1.58-1.63s.57-1.74,1.51-1.74c1.05,0,1.33.93,1.33,1.52,0,.12-.01.21-.02.27h-2.26Zm1.71-.42c0-.37-.15-.95-.81-.95-.59,0-.85.55-.9.95h1.71Z"/><path d="m164.45,55.11c0-.33,0-.61-.03-.87h.51l.03.52h.02c.18-.31.48-.59,1.01-.59.44,0,.77.27.91.65h.01c.1-.18.23-.32.36-.42.19-.15.4-.23.71-.23.42,0,1.06.28,1.06,1.4v1.9h-.57v-1.83c0-.62-.23-.99-.7-.99-.33,0-.59.25-.69.53-.03.08-.05.19-.05.29v1.99h-.57v-1.93c0-.51-.23-.89-.67-.89-.36,0-.63.29-.72.59-.03.09-.05.19-.05.29v1.95h-.57v-2.35Z"/><path d="m172.05,53.33c0,.2-.14.36-.37.36-.21,0-.35-.16-.35-.36s.15-.37.36-.37.36.16.36.37Zm-.65,4.13v-3.23h.58v3.23h-.58Z"/><path d="m172.95,55.29c0-.41-.01-.75-.03-1.05h.52l.03.55h.01c.24-.39.62-.63,1.14-.63.78,0,1.36.66,1.36,1.64,0,1.16-.7,1.73-1.46,1.73-.42,0-.8-.19-.99-.51h-.01v1.75h-.58v-3.49Zm.58.86c0,.09.01.17.03.24.11.41.46.69.88.69.62,0,.98-.51.98-1.25,0-.65-.34-1.2-.96-1.2-.4,0-.77.29-.88.73-.02.07-.04.16-.04.24v.55Z"/><path d="m176.65,56.86c.17.11.48.23.77.23.42,0,.62-.21.62-.48,0-.28-.17-.43-.6-.59-.58-.21-.85-.53-.85-.91,0-.52.42-.95,1.11-.95.33,0,.61.09.79.2l-.15.43c-.13-.08-.36-.19-.66-.19-.34,0-.54.2-.54.44,0,.27.19.39.61.55.56.21.84.49.84.97,0,.57-.44.97-1.2.97-.35,0-.68-.09-.9-.22l.15-.45Z"/><path d="m182.05,56.59c0,.33,0,.63.03.88h-.52l-.03-.53h-.01c-.15.26-.49.6-1.06.6-.5,0-1.11-.28-1.11-1.41v-1.89h.58v1.79c0,.61.19,1.03.72,1.03.39,0,.66-.27.77-.53.03-.09.05-.19.05-.3v-1.98h.58v2.35Z"/><path d="m183.02,55.11c0-.33,0-.61-.03-.87h.51l.03.52h.02c.18-.31.48-.59,1.01-.59.44,0,.77.27.91.65h.01c.1-.18.23-.32.36-.42.19-.15.4-.23.71-.23.42,0,1.06.28,1.06,1.4v1.9h-.57v-1.83c0-.62-.23-.99-.7-.99-.33,0-.59.25-.69.53-.03.08-.05.19-.05.29v1.99h-.57v-1.93c0-.51-.23-.89-.67-.89-.36,0-.63.29-.72.59-.03.09-.05.19-.05.29v1.95h-.57v-2.35Z"/><path d="m153.03,57.8h.58v4.01h1.91v.49h-2.49v-4.49Z"/><path d="m158.96,60.65c0,1.19-.82,1.71-1.6,1.71-.87,0-1.54-.64-1.54-1.66,0-1.08.7-1.71,1.59-1.71s1.55.67,1.55,1.66Zm-2.55.03c0,.71.41,1.24.98,1.24s.98-.53.98-1.25c0-.55-.27-1.24-.96-1.24s-.99.64-.99,1.25Z"/><path d="m159.7,60.07c0-.38,0-.71-.03-1.01h.51l.02.63h.03c.15-.43.5-.71.89-.71.07,0,.11,0,.17.02v.55c-.06-.01-.12-.02-.2-.02-.41,0-.7.31-.78.75-.01.08-.03.17-.03.27v1.72h-.58v-2.22Z"/><path d="m162.13,60.78c.01.79.52,1.12,1.1,1.12.42,0,.67-.07.89-.17l.1.42c-.21.09-.56.2-1.07.2-.99,0-1.58-.65-1.58-1.63s.57-1.74,1.51-1.74c1.05,0,1.33.93,1.33,1.52,0,.12-.01.21-.02.27h-2.26Zm1.71-.42c0-.37-.15-.95-.81-.95-.59,0-.85.55-.9.95h1.71Z"/><path d="m165.13,59.94c0-.33,0-.61-.03-.87h.51l.03.52h.02c.18-.31.48-.59,1.01-.59.44,0,.77.27.91.65h.01c.1-.18.23-.32.36-.42.19-.15.4-.23.71-.23.42,0,1.06.28,1.06,1.4v1.9h-.57v-1.83c0-.62-.23-.99-.7-.99-.33,0-.59.25-.69.53-.03.08-.05.19-.05.29v1.99h-.57v-1.93c0-.51-.23-.89-.67-.89-.36,0-.63.29-.72.59-.03.09-.05.19-.05.29v1.95h-.57v-2.35Z"/><path d="m172.73,58.16c0,.2-.14.36-.37.36-.21,0-.35-.16-.35-.36s.15-.37.36-.37.36.16.36.37Zm-.65,4.13v-3.23h.58v3.23h-.58Z"/><path d="m173.64,60.12c0-.41-.01-.75-.03-1.05h.52l.03.55h.01c.24-.39.62-.63,1.14-.63.78,0,1.36.66,1.36,1.64,0,1.16-.7,1.73-1.46,1.73-.42,0-.8-.19-.99-.51h-.01v1.75h-.58v-3.49Zm.58.86c0,.09.01.17.03.24.11.41.46.69.88.69.62,0,.98-.51.98-1.25,0-.65-.34-1.2-.96-1.2-.4,0-.77.29-.88.73-.02.07-.04.16-.04.24v.55Z"/><path d="m177.34,61.69c.17.11.48.23.77.23.42,0,.62-.21.62-.48,0-.28-.17-.43-.6-.59-.58-.21-.85-.53-.85-.91,0-.52.42-.95,1.11-.95.33,0,.61.09.79.2l-.15.43c-.13-.08-.36-.19-.66-.19-.34,0-.54.2-.54.44,0,.27.19.39.61.55.56.21.84.49.84.97,0,.57-.44.97-1.2.97-.35,0-.68-.09-.9-.22l.15-.45Z"/><path d="m182.74,61.41c0,.33,0,.63.03.88h-.52l-.03-.53h-.01c-.15.26-.49.6-1.06.6-.5,0-1.11-.28-1.11-1.41v-1.89h.58v1.79c0,.61.19,1.03.72,1.03.39,0,.66-.27.77-.53.03-.09.05-.19.05-.3v-1.98h.58v2.35Z"/><path d="m183.71,59.94c0-.33,0-.61-.03-.87h.51l.03.52h.02c.18-.31.48-.59,1.01-.59.44,0,.77.27.91.65h.01c.1-.18.23-.32.36-.42.19-.15.4-.23.71-.23.42,0,1.06.28,1.06,1.4v1.9h-.57v-1.83c0-.62-.23-.99-.7-.99-.33,0-.59.25-.69.53-.03.08-.05.19-.05.29v1.99h-.57v-1.93c0-.51-.23-.89-.67-.89-.36,0-.63.29-.72.59-.03.09-.05.19-.05.29v1.95h-.57v-2.35Z"/><path class="cls-7" d="m310.3,38.05c2.62,20.47-31.84,52.73-52.36,49.92-20.52-2.81-26.78-22.16-24.44-39.79,2.34-17.63,21.67-28.08,37.29-28.88,15.63-.81,36.89-1.72,39.51,18.76Z"/><path class="cls-7" d="m66.97,38.32c-2.62,20.47,31.84,52.73,52.36,49.92,20.52-2.81,26.78-22.16,24.44-39.79-2.34-17.63-21.67-28.08-37.29-28.88-15.63-.81-36.89-1.72-39.51,18.76Z"/><path class="cls-4" d="m120.74,41.2c7.31,7.6,4.57,24.78-3.88,29.43-11.4,6.28-32.77-10.5-31-20.54,1.68-9.57,25.38-18.75,34.88-8.88Z"/><path class="cls-4" d="m263.34,38.33c-7.27,7.6-4.54,24.78,3.85,29.43,11.33,6.28,32.57-10.5,30.82-20.54-1.67-9.57-25.23-18.75-34.67-8.88Z"/><ellipse class="cls-7" cx="191.05" cy="74.79" rx="72.52" ry="70.79"/><path class="cls-2" d="m189.4,46.25c-14.9-2.45-4.65-22.14-25.81-16.71-24.06,6.18-34.45,30.25-21.89,46.75,8.65,11.35,19,8.44,23.64,19.51,6.82,16.31-9.19,29.77-1.94,41.07,9.04,14.1,41.59,15,50.84.49,7.65-12-8.89-28.83.33-45.3,5-8.93,20.37-8.25,26.03-22.34,2.55-6.35,5.71-16.72.8-24.87-5.51-9.14-21.84-16.27-31.48-14.65-13.05,2.19-7.7,18.16-20.52,16.06Z"/><rect class="cls-9" x="200.73" y="48.14" width="38.75" height="27.21" rx="8.31" ry="8.31"/><path class="cls-6" d="m173.33,64.8c16.25-3,17.52-3.06,33.77.03"/><rect class="cls-9" x="140.39" y="48.7" width="38.75" height="27.21" rx="8.31" ry="8.31"/><path class="cls-6" d="m201.34,85.74c2.01,4.56-7.72,6.87-10.48,6.76s-13.7-1.16-12.08-5.79c1.62-4.63,8.88.39,11.73.23,2.85-.16,8.82-5.77,10.83-1.2Z"/><path class="cls-1" d="m158.48,69.56c-.92,0-1.69-.06-2.32-.19-.63-.13-1.1-.29-1.42-.51-.32-.21-.48-.45-.48-.72,0-.19.07-.34.22-.45.15-.11.38-.17.69-.17.26,0,.5.03.7.09.2.06.47.13.82.19.34.06.85.09,1.52.09,1.2,0,2.25-.06,3.17-.17s1.69-.29,2.31-.53c.62-.24,1.1-.53,1.45-.89-.08-.34-.33-.63-.76-.87-.43-.24-.96-.45-1.59-.62-.63-.18-1.31-.35-2.04-.52-.73-.17-1.45-.34-2.17-.52-.72-.18-1.37-.38-1.97-.62-.6-.24-1.07-.53-1.42-.88-.35-.34-.52-.75-.52-1.21,0-.55.19-1.06.58-1.52.39-.46.91-.88,1.55-1.25.64-.38,1.37-.71,2.17-.99.8-.28,1.62-.52,2.45-.73.83-.2,1.63-.35,2.39-.44s1.42-.14,1.98-.14c.31,0,.56.04.76.11s.34.18.43.3c.09.12.14.27.14.43,0,.21-.1.4-.29.55-.19.15-.52.25-.97.28-1.88.16-3.5.42-4.85.78s-2.39.76-3.1,1.21c-.72.45-1.07.89-1.07,1.33,0,.21.19.41.56.59.37.18.87.35,1.48.5.61.15,1.29.31,2.03.47s1.47.35,2.2.56c.73.21,1.4.45,2.01.73.61.28,1.1.62,1.48,1,.38.38.57.83.57,1.35,0,.68-.37,1.27-1.12,1.78-.75.51-1.77.9-3.07,1.17-1.3.27-2.79.41-4.49.41Zm2.15,2.66c-.36,0-.63-.07-.83-.21-.19-.14-.31-.3-.34-.47-.17-.77-.28-1.49-.34-2.18-.05-.68-.05-1.35,0-1.99.05-.64.14-1.28.26-1.91s.24-1.26.38-1.89c.05-.2.13-.35.26-.46.12-.11.3-.16.51-.16.28,0,.52.1.73.29.21.2.28.49.22.89-.11.67-.21,1.39-.29,2.17-.09.78-.11,1.58-.08,2.42.03.83.15,1.69.35,2.57.06.28.04.5-.07.67-.11.17-.37.25-.77.25Zm.4-8.19c-.33,0-.6-.1-.82-.3-.22-.2-.3-.5-.26-.9.14-.78.26-1.58.37-2.42s.16-1.7.15-2.61c0-.9-.14-1.84-.41-2.81-.03-.18-.02-.34.02-.48.05-.14.15-.26.31-.35.16-.09.38-.13.67-.13.26,0,.49.06.68.18.19.12.3.27.35.46.31,1.13.46,2.19.44,3.18s-.12,1.94-.3,2.85c-.19.91-.38,1.82-.58,2.72-.05.19-.11.34-.19.44s-.23.16-.44.16Z"/><path class="cls-5" d="m207.1,131.15c-8.23,9.42-26.56,9.05-35.43,0-4.27-4.36-7.59-12-4.98-15.55,2.57-3.5,8.62.1,22.7-.56,13.14-.61,18.1-4.23,21.04-1.11,3.26,3.46,1.12,12.13-3.32,17.21Z"/><path class="cls-1" d="m220,67.14c-.92,0-1.69-.06-2.32-.19-.63-.13-1.1-.29-1.42-.51-.32-.21-.48-.45-.48-.72,0-.19.07-.34.22-.45.15-.11.38-.17.69-.17.26,0,.5.03.7.09.2.06.47.13.82.19.34.06.85.09,1.52.09,1.2,0,2.25-.06,3.17-.17.92-.11,1.69-.29,2.31-.53.62-.24,1.1-.53,1.45-.89-.08-.34-.33-.63-.76-.87-.43-.24-.96-.45-1.59-.62-.63-.18-1.31-.35-2.04-.52-.73-.17-1.45-.34-2.17-.52s-1.37-.38-1.97-.62-1.07-.53-1.42-.88c-.35-.34-.53-.75-.53-1.21,0-.55.19-1.06.58-1.52.39-.46.91-.88,1.55-1.25.65-.38,1.37-.71,2.17-.99.8-.28,1.62-.52,2.45-.73.83-.2,1.63-.35,2.39-.44s1.42-.14,1.98-.14c.31,0,.56.04.76.11s.34.18.43.3c.09.12.14.27.14.43,0,.21-.1.4-.29.55-.2.15-.52.25-.97.28-1.88.16-3.5.42-4.85.78s-2.39.76-3.1,1.21c-.72.45-1.07.89-1.07,1.33,0,.21.19.41.56.59.37.18.87.35,1.48.5.61.15,1.29.31,2.03.47s1.47.35,2.2.56c.73.21,1.4.45,2,.73.61.28,1.1.62,1.48,1s.57.83.57,1.35c0,.68-.37,1.27-1.12,1.78-.75.51-1.77.9-3.07,1.17-1.3.27-2.79.41-4.49.41Zm2.15,2.66c-.36,0-.63-.07-.83-.21-.19-.14-.31-.3-.34-.47-.17-.77-.28-1.49-.34-2.18s-.05-1.35,0-1.99c.05-.64.14-1.28.26-1.91s.25-1.26.38-1.89c.05-.2.13-.35.26-.46.12-.11.29-.16.51-.16.28,0,.52.1.73.29.21.2.28.49.22.89-.11.67-.21,1.39-.29,2.17-.09.78-.11,1.58-.08,2.42s.15,1.69.35,2.57c.06.28.04.5-.07.67-.11.17-.37.25-.77.25Zm.4-8.19c-.33,0-.6-.1-.82-.3-.22-.2-.3-.5-.26-.9.14-.78.26-1.58.37-2.42s.16-1.7.15-2.61-.14-1.84-.41-2.81c-.03-.18-.02-.34.02-.48.05-.14.15-.26.32-.35s.38-.13.66-.13c.26,0,.49.06.68.18.19.12.3.27.35.46.31,1.13.46,2.19.44,3.18-.02.99-.12,1.94-.3,2.85s-.38,1.82-.58,2.72c-.05.19-.11.34-.19.44s-.23.16-.44.16Z"/></g></svg>