<?xml version="1.0" encoding="UTF-8"?><svg id="Layer_2" xmlns="http://www.w3.org/2000/svg" width="1921.5" height="1080.5" xmlns:xlink="http://www.w3.org/1999/xlink" viewBox="0 0 1921.5 1080.5"><defs><style>.cls-1{fill:#28804a;}.cls-2{fill:#39b54a;stroke:#39b54a;}.cls-2,.cls-3,.cls-4,.cls-5{stroke-miterlimit:10;}.cls-3{fill:#75583d;stroke:#8c6239;}.cls-4{fill:#603813;opacity:.6;stroke:#603813;}.cls-5{fill:url(#linear-gradient);stroke:#d8c559;}</style><linearGradient id="linear-gradient" x1="1" y1="438.25" x2="1921" y2="438.25" gradientUnits="userSpaceOnUse"><stop offset="0" stop-color="#cce0f4"/><stop offset=".19" stop-color="#87c4e8"/><stop offset=".38" stop-color="#45abdd"/><stop offset=".48" stop-color="#2ca1d9"/><stop offset=".57" stop-color="#1e9cd7"/><stop offset=".87" stop-color="#0075be"/><stop offset=".99" stop-color="#005b97"/></linearGradient></defs><g id="Layer_1-2"><circle class="cls-4" cx="123" cy="999.5" r="15"/><circle class="cls-4" cx="199.5" cy="1052" r="13.5"/><circle class="cls-4" cx="605.5" cy="978" r="9.5"/><circle class="cls-4" cx="614.5" cy="1037" r="14.5"/><ellipse class="cls-4" cx="385" cy="1052" rx="20" ry="13.5"/><circle class="cls-4" cx="1125.5" cy="969" r="11.5"/><circle class="cls-4" cx="1158.5" cy="1031" r="12.5"/><circle class="cls-4" cx="1334.5" cy="984" r="13.5"/><circle class="cls-4" cx="1522" cy="973.5" r="17"/><circle class="cls-4" cx="1361" cy="1043.5" r="10"/><circle class="cls-4" cx="970.5" cy="1013" r="12.5"/><circle class="cls-4" cx="1022" cy="973.5" r="11"/><circle class="cls-4" cx="802.5" cy="1039" r="15.5"/><circle class="cls-4" cx="1795.5" cy="1064" r="15.5"/><circle class="cls-4" cx="1890.5" cy="1028" r="15.5"/><circle class="cls-4" cx="1745.5" cy="984" r="15.5"/><circle class="cls-4" cx="1538.5" cy="1059" r="11.5"/><rect class="cls-5" x="1" y=".5" width="1920" height="875.5"/><path class="cls-2" d="m.5,865.16c246-13.71,201,4.36,421-4.67,220-9.04,224.06,6.13,469.53-.67,245.47-6.8-73.53,2.23,245.47-6.8,319-9.04,220.28,15.89,436.64,6.08,216.36-9.82,346.86,1.5,346.86,1.5l.5,73.91H.5"/><polygon class="cls-3" points=".5 934.5 1920.5 934.5 1920.5 1080 1 1080 .5 934.5"/><path class="cls-1" d="m1314.04,908.1v13.19c0,1.93,3,1.93,3,0v-13.19c0-1.93-3-1.93-3,0h0Z"/><path class="cls-1" d="m1324.86,904v17.08c0,1.93,3,1.93,3,0v-17.08c0-1.93-3-1.93-3,0h0Z"/><path class="cls-1" d="m1319.86,900v21c0,1.93,3,1.93,3,0v-21c0-1.93-3-1.93-3,0h0Z"/><path class="cls-1" d="m885.48,894.74v13.19c0,1.93,3,1.93,3,0v-13.19c0-1.93-3-1.93-3,0h0Z"/><path class="cls-1" d="m896.3,890.64v17.08c0,1.93,3,1.93,3,0v-17.08c0-1.93-3-1.93-3,0h0Z"/><path class="cls-1" d="m891.3,886.64v21c0,1.93,3,1.93,3,0v-21c0-1.93-3-1.93-3,0h0Z"/><path class="cls-1" d="m1236.48,894.74v13.19c0,1.93,3,1.93,3,0v-13.19c0-1.93-3-1.93-3,0h0Z"/><path class="cls-1" d="m1247.3,890.64v17.08c0,1.93,3,1.93,3,0v-17.08c0-1.93-3-1.93-3,0h0Z"/><path class="cls-1" d="m1242.3,886.64v21c0,1.93,3,1.93,3,0v-21c0-1.93-3-1.93-3,0h0Z"/><path class="cls-1" d="m579.48,918.74v13.19c0,1.93,3,1.93,3,0v-13.19c0-1.93-3-1.93-3,0h0Z"/><path class="cls-1" d="m590.3,914.64v17.08c0,1.93,3,1.93,3,0v-17.08c0-1.93-3-1.93-3,0h0Z"/><path class="cls-1" d="m585.3,910.64v21c0,1.93,3,1.93,3,0v-21c0-1.93-3-1.93-3,0h0Z"/><path class="cls-1" d="m1095.34,905.54v13.19c0,1.93,3,1.93,3,0v-13.19c0-1.93-3-1.93-3,0h0Z"/><path class="cls-1" d="m1106.16,901.44v17.08c0,1.93,3,1.93,3,0v-17.08c0-1.93-3-1.93-3,0h0Z"/><path class="cls-1" d="m1101.16,897.44v21c0,1.93,3,1.93,3,0v-21c0-1.93-3-1.93-3,0h0Z"/><path class="cls-1" d="m84.34,856.54v13.19c0,1.93,3,1.93,3,0v-13.19c0-1.93-3-1.93-3,0h0Z"/><path class="cls-1" d="m95.16,852.44v17.08c0,1.93,3,1.93,3,0v-17.08c0-1.93-3-1.93-3,0h0Z"/><path class="cls-1" d="m90.16,848.44v21c0,1.93,3,1.93,3,0v-21c0-1.93-3-1.93-3,0h0Z"/><path class="cls-1" d="m192.34,896.54v13.19c0,1.93,3,1.93,3,0v-13.19c0-1.93-3-1.93-3,0h0Z"/><path class="cls-1" d="m203.16,892.44v17.08c0,1.93,3,1.93,3,0v-17.08c0-1.93-3-1.93-3,0h0Z"/><path class="cls-1" d="m198.16,888.44v21c0,1.93,3,1.93,3,0v-21c0-1.93-3-1.93-3,0h0Z"/><path class="cls-1" d="m440.34,885.54v13.19c0,1.93,3,1.93,3,0v-13.19c0-1.93-3-1.93-3,0h0Z"/><path class="cls-1" d="m451.16,881.44v17.08c0,1.93,3,1.93,3,0v-17.08c0-1.93-3-1.93-3,0h0Z"/><path class="cls-1" d="m446.16,877.44v21c0,1.93,3,1.93,3,0v-21c0-1.93-3-1.93-3,0h0Z"/><path class="cls-1" d="m710.34,859.54v13.19c0,1.93,3,1.93,3,0v-13.19c0-1.93-3-1.93-3,0h0Z"/><path class="cls-1" d="m721.16,855.44v17.08c0,1.93,3,1.93,3,0v-17.08c0-1.93-3-1.93-3,0h0Z"/><path class="cls-1" d="m716.16,851.44v21c0,1.93,3,1.93,3,0v-21c0-1.93-3-1.93-3,0h0Z"/><path class="cls-1" d="m1807.58,854.16v13.19c0,1.93,3,1.93,3,0v-13.19c0-1.93-3-1.93-3,0h0Z"/><path class="cls-1" d="m1818.4,850.06v17.08c0,1.93,3,1.93,3,0v-17.08c0-1.93-3-1.93-3,0h0Z"/><path class="cls-1" d="m1813.4,846.06v21c0,1.93,3,1.93,3,0v-21c0-1.93-3-1.93-3,0h0Z"/><path class="cls-1" d="m1723.58,899.16v13.19c0,1.93,3,1.93,3,0v-13.19c0-1.93-3-1.93-3,0h0Z"/><path class="cls-1" d="m1734.4,895.06v17.08c0,1.93,3,1.93,3,0v-17.08c0-1.93-3-1.93-3,0h0Z"/><path class="cls-1" d="m1729.4,891.06v21c0,1.93,3,1.93,3,0v-21c0-1.93-3-1.93-3,0h0Z"/><path class="cls-1" d="m1569.58,885.16v13.19c0,1.93,3,1.93,3,0v-13.19c0-1.93-3-1.93-3,0h0Z"/><path class="cls-1" d="m1580.4,881.06v17.08c0,1.93,3,1.93,3,0v-17.08c0-1.93-3-1.93-3,0h0Z"/><path class="cls-1" d="m1575.4,877.06v21c0,1.93,3,1.93,3,0v-21c0-1.93-3-1.93-3,0h0Z"/><circle class="cls-4" cx="312.5" cy="1000" r="25.5"/><circle class="cls-4" cx="501.5" cy="1019" r="31.5"/><circle class="cls-4" cx="722.5" cy="1001" r="26.5"/><circle class="cls-4" cx="1061.5" cy="1031" r="26.5"/><circle class="cls-4" cx="1235.5" cy="984" r="18.5"/><ellipse class="cls-4" cx="901" cy="967.5" rx="20" ry="17"/><circle class="cls-4" cx="1594.5" cy="1006" r="18.5"/><circle class="cls-4" cx="1435" cy="987.5" r="20"/><circle class="cls-4" cx="1817.5" cy="988" r="19.5"/><ellipse class="cls-4" cx="1691.5" cy="1029.5" rx="10.5" ry="11"/><circle class="cls-4" cx="1646" cy="976.5" r="11"/><ellipse class="cls-4" cx="1250.5" cy="1052.5" rx="14.5" ry="15"/><circle class="cls-4" cx="870.5" cy="1022" r="14.5"/><circle class="cls-4" cx="417.5" cy="985" r="10.5"/><circle class="cls-4" cx="193.5" cy="988" r="19.5"/><circle class="cls-4" cx="85.5" cy="1039" r="13.5"/><circle class="cls-4" cx="53.5" cy="965" r="16.5"/></g></svg>