<?xml version="1.0" encoding="UTF-8"?><svg id="Layer_2" xmlns="http://www.w3.org/2000/svg" width="107.69" height="177.27" viewBox="0 0 107.69 177.27"><defs><style>.cls-1{stroke:#684e38;}.cls-1,.cls-2{fill:#563f11;stroke-miterlimit:10;}.cls-2{stroke:#563f11;}</style></defs><g id="Layer_3"><path class="cls-2" d="m3.19.58c2,58.2,1.28,116.29-2.65,174.46,35.11.77,69.94.75,104.79-3.45-1.79-37.37-6.7-95.07-.72-127.72,5.98-32.65-5.67-22.55-22.44-24.98-16.77-2.43-21.28-1.97-32.63-2.31-11.35-.34-10.12,7.92-18.95.74C21.76,10.13,16.54,2.39,3.19.58Z"/><path class="cls-1" d="m52.32,14.49c.19,54.26.8,108.51.07,162.77"/><path class="cls-1" d="m.3,129.11c34.99.19,69.96-.15,104.95-.77"/><path class="cls-1" d="m1.45,80.28c34.02.92,68.01,1.17,102.05,1.26"/><path class="cls-1" d="m1.5,29.42c35.41,1.03,70.77,1.08,106.19,1.33"/></g></svg>