<?xml version="1.0" encoding="UTF-8"?><svg id="Layer_2" xmlns="http://www.w3.org/2000/svg" width="698.1" height="271.62" viewBox="0 0 698.1 271.62"><defs><style>.cls-1{fill:#d8c559;stroke:#ce9c1a;stroke-miterlimit:10;}</style></defs><g id="Abe"><path class="cls-1" d="m83.59,211.64h-14.43c-.71-5.12-1.21-10.26-1.45-14.09-4.8,11.79-13.09,16.87-23.89,16.87-24.22,0-37.75-34.48-37.75-78.85,0-47.09,14.7-82.45,41.21-82.45,22.14,0,34.66,23.76,36.54,49.85h-19.99c-1.42-8.79-5.19-20.86-16.79-20.86-16.22,0-20.35,26.09-20.35,51.88s4.94,51.02,20.58,51.02c14.33,0,16.71-19.04,16.71-30.08v-1.33h-16.79v-30.18h36.4v88.25Z"/><path class="cls-1" d="m178.68,133.12c0,43.65-14.09,80.86-41.33,80.86s-40.13-35.76-40.13-80.43,15.24-80.44,41.33-80.44c24.62,0,40.12,32.03,40.12,80.01Zm-60.82-.25c0,29.63,6.46,51.03,20.22,51.03,14.91,0,19.98-23.76,19.98-50.33,0-28.59-5.75-50.38-20.34-50.38s-19.87,20.01-19.87,49.68Z"/><path class="cls-1" d="m193.78,55.45h33.81c24.54,0,40.27,30.12,40.27,76.09s-15.25,80.11-41.06,80.11h-33.02V55.45Zm20.01,126.3h12.19c14.86,0,21.25-20.93,21.25-50.21,0-24.46-6.03-46.19-21.11-46.19h-12.33v96.41Z"/><path class="cls-1" d="m297.83,85.83h-24.69v-30.38h69.27v30.38h-24.56v125.81h-20.01v-125.81Z"/><path class="cls-1" d="m455.44,211.64h-14.43c-.71-5.12-1.21-10.26-1.45-14.09-4.8,11.79-13.09,16.87-23.89,16.87-24.22,0-37.75-34.48-37.75-78.85,0-47.09,14.7-82.45,41.21-82.45,22.14,0,34.66,23.76,36.54,49.85h-19.99c-1.42-8.79-5.19-20.86-16.79-20.86-16.22,0-20.35,26.09-20.35,51.88s4.94,51.02,20.58,51.02c14.33,0,16.71-19.04,16.71-30.08v-1.33h-16.79v-30.18h36.4v88.25Z"/><path class="cls-1" d="m491.15,178.38l-5.79,33.26h-19.62l27.65-156.2h25.29l28.84,156.2h-20.99l-6.13-33.26h-29.25Zm-.25-154.26c0-13.24,5.32-23.62,15.16-23.62s14.91,9.71,14.91,23.4-5.69,23.63-14.91,23.63-15.16-9.96-15.16-23.4Zm25.39,123.88c-5.26-30.41-8.83-51.4-10.86-66h-.14c-2.03,15.99-5.92,39.87-10.16,66h21.16Zm-4.74-123.88c0-4.94-1.66-9.61-5.61-9.61s-5.5,4.68-5.5,9.39c0,4.47,1.42,9.38,5.37,9.38s5.74-4.23,5.74-9.16Z"/><path class="cls-1" d="m615.8,145.88h-39.1v35.38h43.23l-2.33,30.38h-60.27V55.45h60.16v30.38h-40.78v29.67h39.1v30.38Z"/><path class="cls-1" d="m651.73,85.83h-24.69v-30.38h69.27v30.38h-24.56v125.81h-20.01v-125.81Z"/></g></svg>