<?xml version="1.0" encoding="UTF-8"?><svg id="Layer_2" xmlns="http://www.w3.org/2000/svg" width="893.18" height="253.65" viewBox="0 0 893.18 253.65"><defs><style>.cls-1{fill:#d8c559;stroke:#ce9c1a;stroke-miterlimit:10;}</style></defs><g id="Abe"><path class="cls-1" d="m88.11,115.17c0,43.2-13.83,80.84-41.91,80.84-26.3,0-40.13-37.25-40.13-80.41S21.32,35.14,47.41,35.14c24.62,0,40.7,32.2,40.7,80.03Zm-4.49-77.78L21.88,193.75h-12.38L71.25,37.4h12.38ZM26.06,114.92c0,25.76,6.94,52.1,20.87,52.1,15.07,0,20.62-24.95,20.62-51.4,0-31.65-6.48-51.48-20.98-51.48-13.08,0-20.51,19.72-20.51,50.78Z"/><path class="cls-1" d="m120.3,193.68l-28.96-156.2h21.46l11.64,70.44c3.57,21.49,6.04,38.65,7.96,55.11h.25c1.68-15.11,4.49-32.68,8.3-54.66l12.21-70.9h20.4l-29.67,156.2h-23.59Z"/><path class="cls-1" d="m169.38,193.67v-41.95h20.56v41.95h-20.56Z"/><path class="cls-1" d="m201.17,193.67v-41.95h20.56v41.95h-20.56Z"/><path class="cls-1" d="m232.96,193.67v-41.95h20.56v41.95h-20.56Z"/><path class="cls-1" d="m297.34,37.48h19.78v67.62c5.31-12.27,21.04-45.95,30.74-67.62h23.82l-32.52,64.63,33.6,91.57h-23.9l-23.53-67.13-8.21,15.11v52.02h-19.78V37.48Z"/><path class="cls-1" d="m454.56,115.16c0,43.65-14.09,80.86-41.33,80.86s-40.13-35.76-40.13-80.43,15.24-80.44,41.33-80.44c24.62,0,40.12,32.03,40.12,80.01Zm-60.82-.25c0,29.63,6.46,51.03,20.22,51.03,14.91,0,19.98-23.76,19.98-50.33,0-28.59-5.75-50.38-20.34-50.38s-19.87,20.01-19.87,49.68Z"/><path class="cls-1" d="m538.8,137.53c0-25.93.25-56.05.61-74.05h-.61c-3.92,33.39-10.87,81.74-18.29,130.2h-16.81c-5.67-43.44-12.82-98.11-16.39-130.61h-.62c.72,18.39,1.09,49.83,1.09,76.62v53.99h-18.11V37.48h29.65c5.6,38.27,11.71,86.56,14.06,110.53h.15c2.06-22.14,9.86-72.62,15.97-110.53h28.57v156.2h-19.26v-56.15Z"/><path class="cls-1" d="m625.75,37.48v156.2h-20.02V37.48h20.02Z"/><path class="cls-1" d="m718.32,193.68h-14.43c-.71-5.12-1.21-10.26-1.45-14.09-4.8,11.79-13.09,16.87-23.89,16.87-24.22,0-37.75-34.48-37.75-78.85,0-47.09,14.7-82.45,41.21-82.45,22.14,0,34.66,23.76,36.54,49.85h-19.99c-1.42-8.79-5.19-20.86-16.79-20.86-16.22,0-20.35,26.09-20.35,51.88s4.94,51.02,20.58,51.02c14.33,0,16.71-19.04,16.71-30.08v-1.33h-16.79v-30.18h36.4v88.25Z"/><path class="cls-1" d="m794.38,127.91h-39.1v35.38h43.23l-2.33,30.38h-60.27V37.48h60.16v30.38h-40.78v29.67h39.1v30.38Z"/><path class="cls-1" d="m810.8,193.68V37.48h24.5c9.86,34.78,26.92,93.42,30.52,110.68h.26c-.96-15.52-.98-43.21-.98-68.78v-41.89h18.06v156.2h-23.28c-8.28-29.59-27.64-98.53-31.5-116.95h-.25c.62,12.92.84,45.97.84,73.85v43.1h-18.18Z"/></g></svg>