<?xml version="1.0" encoding="utf-8"?>
<!-- Generator: Adobe Illustrator 27.3.1, SVG Export Plug-In . SVG Version: 6.00 Build 0)  -->
<svg version="1.1" id="Layer_2_00000011728449374637136760000016345978581258149294_"
	 xmlns="http://www.w3.org/2000/svg" xmlns:xlink="http://www.w3.org/1999/xlink" x="0px" y="0px" viewBox="0 0 697 85.6"
	 style="enable-background:new 0 0 697 85.6;" xml:space="preserve">
<style type="text/css">
	.st0{fill:url(#SVGID_1_);stroke:#000000;stroke-miterlimit:10;}
	.st1{fill:url(#SVGID_00000078028671526227534730000007754562464452595901_);stroke:#000000;stroke-miterlimit:10;}
	.st2{fill:url(#SVGID_00000132071363427253538120000003025398043034831273_);stroke:#000000;stroke-miterlimit:10;}
	.st3{fill:url(#SVGID_00000023973480650410965130000005500002541679948417_);stroke:#000000;stroke-miterlimit:10;}
	.st4{fill:url(#SVGID_00000150102048009462792740000001206976459628587922_);stroke:#000000;stroke-miterlimit:10;}
	.st5{fill:url(#SVGID_00000021093374443011589160000015956982875833029274_);stroke:#000000;stroke-miterlimit:10;}
	.st6{fill:url(#SVGID_00000088832216976383088440000001340385945371490963_);stroke:#000000;stroke-miterlimit:10;}
	.st7{fill:url(#SVGID_00000055686135105075131950000003150923659664980411_);stroke:#000000;stroke-miterlimit:10;}
	.st8{fill:url(#SVGID_00000119098211670130850800000002702506389919908280_);stroke:#000000;stroke-miterlimit:10;}
	.st9{fill:url(#SVGID_00000022534450635402752400000005210332184103495326_);stroke:#000000;stroke-miterlimit:10;}
	.st10{fill:url(#SVGID_00000037664612471859140720000000766428523182348958_);stroke:#000000;stroke-miterlimit:10;}
	.st11{fill:url(#SVGID_00000023993157107060420020000014389733134728028300_);stroke:#000000;stroke-miterlimit:10;}
</style>
<g id="Layer_2-2">
	<g id="tekst">
		
			<linearGradient id="SVGID_1_" gradientUnits="userSpaceOnUse" x1="0" y1="273.0614" x2="68.6792" y2="273.0614" gradientTransform="matrix(1 0 0 1 0 -229.52)">
			<stop  offset="8.000000e-02" style="stop-color:#CE9C1A"/>
			<stop  offset="0.14" style="stop-color:#CFA223"/>
			<stop  offset="0.24" style="stop-color:#D3B23C"/>
			<stop  offset="0.33" style="stop-color:#D8C559"/>
			<stop  offset="0.53" style="stop-color:#D7C355"/>
			<stop  offset="0.67" style="stop-color:#D5BC4C"/>
			<stop  offset="0.81" style="stop-color:#D3B23C"/>
			<stop  offset="0.93" style="stop-color:#CFA325"/>
			<stop  offset="0.98" style="stop-color:#CE9C1A"/>
		</linearGradient>
		<path class="st0" d="M25.1,83.9l-8-52.7h-0.8v52.6H0V3.2h24.1l10,54.8h0.8l10-54.8h23.9v80.5H52.3V31.2h-0.9L43,83.9H25.1
			L25.1,83.9L25.1,83.9z"/>
		
			<linearGradient id="SVGID_00000032645160921653849650000018292180922655163574_" gradientUnits="userSpaceOnUse" x1="75.2708" y1="273.0085" x2="131.3373" y2="273.0085" gradientTransform="matrix(1 0 0 1 0 -229.52)">
			<stop  offset="0.11" style="stop-color:#CE9C1A"/>
			<stop  offset="0.19" style="stop-color:#CFA223"/>
			<stop  offset="0.33" style="stop-color:#D3B23C"/>
			<stop  offset="0.45" style="stop-color:#D8C559"/>
			<stop  offset="0.67" style="stop-color:#CE9C1A"/>
			<stop  offset="0.87" style="stop-color:#D8C559"/>
		</linearGradient>
		<path style="fill:url(#SVGID_00000032645160921653849650000018292180922655163574_);stroke:#000000;stroke-miterlimit:10;" d="
			M103.3,1.9c18.3,0,28,14.5,28,41.6s-9.7,41.6-28,41.6s-28-14.5-28-41.6S85,1.9,103.3,1.9L103.3,1.9z M103.3,66.7
			c7.4,0,10.8-7.2,10.8-23.3s-3.5-23.1-10.8-23.1c-7.4,0-10.8,7-10.8,23.1S96,66.7,103.3,66.7z"/>
		
			<linearGradient id="SVGID_00000055679961453931518030000001632482418141418922_" gradientUnits="userSpaceOnUse" x1="137.9207" y1="273.006" x2="190.7741" y2="273.006" gradientTransform="matrix(1 0 0 1 0 -229.52)">
			<stop  offset="8.000000e-02" style="stop-color:#CE9C1A"/>
			<stop  offset="0.12" style="stop-color:#D0A427"/>
			<stop  offset="0.23" style="stop-color:#D4B642"/>
			<stop  offset="0.33" style="stop-color:#D7C153"/>
			<stop  offset="0.41" style="stop-color:#D8C559"/>
			<stop  offset="0.73" style="stop-color:#CE9C1A"/>
			<stop  offset="0.92" style="stop-color:#D8C559"/>
		</linearGradient>
		<path style="fill:url(#SVGID_00000055679961453931518030000001632482418141418922_);stroke:#000000;stroke-miterlimit:10;" d="
			M154.5,40v43.7h-16.6V3.2h17.8l18.6,45.3V3.2h16.5v80.5h-17.5L154.5,40L154.5,40L154.5,40z"/>
		
			<linearGradient id="SVGID_00000107574893093923155420000013226980813735074435_" gradientUnits="userSpaceOnUse" x1="199.9338" y1="273.006" x2="242.6681" y2="273.006" gradientTransform="matrix(1 0 0 1 0 -229.52)">
			<stop  offset="8.000000e-02" style="stop-color:#CE9C1A"/>
			<stop  offset="0.12" style="stop-color:#D0A427"/>
			<stop  offset="0.23" style="stop-color:#D4B642"/>
			<stop  offset="0.33" style="stop-color:#D7C153"/>
			<stop  offset="0.41" style="stop-color:#D8C559"/>
			<stop  offset="0.62" style="stop-color:#CE9C1A"/>
			<stop  offset="0.92" style="stop-color:#D8C559"/>
		</linearGradient>
		<path style="fill:url(#SVGID_00000107574893093923155420000013226980813735074435_);stroke:#000000;stroke-miterlimit:10;" d="
			M242.7,3.2v18.5h-25.9v12.6H237v17.9h-20.2v13.2h25.5v18.3h-42.4V3.2H242.7L242.7,3.2z"/>
		
			<linearGradient id="SVGID_00000161630469131691660180000015844383075868267437_" gradientUnits="userSpaceOnUse" x1="243.9583" y1="273.006" x2="300.5044" y2="273.006" gradientTransform="matrix(1 0 0 1 0 -229.52)">
			<stop  offset="0.17" style="stop-color:#CE9C1A"/>
			<stop  offset="0.2" style="stop-color:#D0A427"/>
			<stop  offset="0.27" style="stop-color:#D4B642"/>
			<stop  offset="0.33" style="stop-color:#D7C153"/>
			<stop  offset="0.38" style="stop-color:#D8C559"/>
			<stop  offset="0.62" style="stop-color:#CE9C1A"/>
			<stop  offset="0.78" style="stop-color:#D8C559"/>
		</linearGradient>
		<path style="fill:url(#SVGID_00000161630469131691660180000015844383075868267437_);stroke:#000000;stroke-miterlimit:10;" d="
			M263.9,83.7V57.8L244,3.2h18.5l9.7,32.9h0.6l9.3-32.9h18.4l-19.9,54.6v25.9H263.9z"/>
		
			<linearGradient id="SVGID_00000031206194009286289950000000400342932293624200_" gradientUnits="userSpaceOnUse" x1="298.4988" y1="282.6785" x2="329.985" y2="282.6785" gradientTransform="matrix(1 0 0 1 0 -229.52)">
			<stop  offset="8.000000e-02" style="stop-color:#CE9C1A"/>
			<stop  offset="0.19" style="stop-color:#D1AB31"/>
			<stop  offset="0.35" style="stop-color:#D6BD4E"/>
			<stop  offset="0.44" style="stop-color:#D8C559"/>
			<stop  offset="0.57" style="stop-color:#D7C355"/>
			<stop  offset="0.66" style="stop-color:#D5BC4C"/>
			<stop  offset="0.75" style="stop-color:#D3B23C"/>
			<stop  offset="0.83" style="stop-color:#CFA325"/>
			<stop  offset="0.86" style="stop-color:#CE9C1A"/>
		</linearGradient>
		<path style="fill:url(#SVGID_00000031206194009286289950000000400342932293624200_);stroke:#000000;stroke-miterlimit:10;" d="
			M298.5,45.1H330v16.2h-31.5V45.1z"/>
		
			<linearGradient id="SVGID_00000136394639461698309240000011333632098663789960_" gradientUnits="userSpaceOnUse" x1="338.4996" y1="273.0614" x2="407.1788" y2="273.0614" gradientTransform="matrix(1 0 0 1 0 -229.52)">
			<stop  offset="8.000000e-02" style="stop-color:#CE9C1A"/>
			<stop  offset="0.15" style="stop-color:#D1AB31"/>
			<stop  offset="0.26" style="stop-color:#D6BD4E"/>
			<stop  offset="0.32" style="stop-color:#D8C559"/>
			<stop  offset="0.58" style="stop-color:#D7C357"/>
			<stop  offset="0.67" style="stop-color:#D6BF50"/>
			<stop  offset="0.74" style="stop-color:#D4B744"/>
			<stop  offset="0.79" style="stop-color:#D2AC33"/>
			<stop  offset="0.84" style="stop-color:#CE9E1E"/>
			<stop  offset="0.85" style="stop-color:#CE9C1A"/>
		</linearGradient>
		<path style="fill:url(#SVGID_00000136394639461698309240000011333632098663789960_);stroke:#000000;stroke-miterlimit:10;" d="
			M363.6,83.9l-8-52.7h-0.8v52.6h-16.4V3.2h24.1l10,54.8h0.8l10-54.8h23.9v80.5h-16.4V31.2h-0.9l-8.4,52.7H363.6L363.6,83.9
			L363.6,83.9z"/>
		
			<linearGradient id="SVGID_00000094585614194159869990000013512657276245377699_" gradientUnits="userSpaceOnUse" x1="413.7705" y1="273.0085" x2="469.837" y2="273.0085" gradientTransform="matrix(1 0 0 1 0 -229.52)">
			<stop  offset="0.15" style="stop-color:#CE9C1A"/>
			<stop  offset="0.23" style="stop-color:#D1AB31"/>
			<stop  offset="0.35" style="stop-color:#D6BD4E"/>
			<stop  offset="0.43" style="stop-color:#D8C559"/>
			<stop  offset="0.66" style="stop-color:#D7C357"/>
			<stop  offset="0.74" style="stop-color:#D6BF50"/>
			<stop  offset="0.8" style="stop-color:#D4B744"/>
			<stop  offset="0.84" style="stop-color:#D2AC33"/>
			<stop  offset="0.89" style="stop-color:#CE9E1E"/>
			<stop  offset="0.89" style="stop-color:#CE9C1A"/>
		</linearGradient>
		<path style="fill:url(#SVGID_00000094585614194159869990000013512657276245377699_);stroke:#000000;stroke-miterlimit:10;" d="
			M441.8,1.9c18.3,0,28,14.5,28,41.6s-9.7,41.6-28,41.6c-18.3,0-28-14.5-28-41.6S423.5,1.9,441.8,1.9L441.8,1.9z M441.8,66.7
			c7.4,0,10.8-7.2,10.8-23.3s-3.5-23.1-10.8-23.1c-7.4,0-10.8,7-10.8,23.1S434.5,66.7,441.8,66.7z"/>
		
			<linearGradient id="SVGID_00000024718373003438434340000015220961652474807965_" gradientUnits="userSpaceOnUse" x1="476.4245" y1="273.006" x2="529.2779" y2="273.006" gradientTransform="matrix(1 0 0 1 0 -229.52)">
			<stop  offset="0.12" style="stop-color:#CE9C1A"/>
			<stop  offset="0.24" style="stop-color:#D1AB31"/>
			<stop  offset="0.43" style="stop-color:#D6BD4E"/>
			<stop  offset="0.53" style="stop-color:#D8C559"/>
			<stop  offset="0.72" style="stop-color:#D7C357"/>
			<stop  offset="0.79" style="stop-color:#D6BF50"/>
			<stop  offset="0.84" style="stop-color:#D4B744"/>
			<stop  offset="0.88" style="stop-color:#D2AC33"/>
			<stop  offset="0.91" style="stop-color:#CE9E1E"/>
			<stop  offset="0.92" style="stop-color:#CE9C1A"/>
		</linearGradient>
		<path style="fill:url(#SVGID_00000024718373003438434340000015220961652474807965_);stroke:#000000;stroke-miterlimit:10;" d="
			M493.1,40v43.7h-16.6V3.2h17.8l18.6,45.3V3.2h16.5v80.5h-17.5L493.1,40C493,40,493.1,40,493.1,40z"/>
		
			<linearGradient id="SVGID_00000108277609538464374520000017402122301455815092_" gradientUnits="userSpaceOnUse" x1="538.4376" y1="273.3412" x2="589.7691" y2="273.3412" gradientTransform="matrix(1 0 0 1 0 -229.52)">
			<stop  offset="9.000000e-02" style="stop-color:#CE9C1A"/>
			<stop  offset="0.19" style="stop-color:#D1AB31"/>
			<stop  offset="0.33" style="stop-color:#D6BD4E"/>
			<stop  offset="0.41" style="stop-color:#D8C559"/>
			<stop  offset="0.61" style="stop-color:#D7C357"/>
			<stop  offset="0.68" style="stop-color:#D6BF50"/>
			<stop  offset="0.73" style="stop-color:#D4B744"/>
			<stop  offset="0.77" style="stop-color:#D2AC33"/>
			<stop  offset="0.8" style="stop-color:#CE9E1E"/>
			<stop  offset="0.81" style="stop-color:#CE9C1A"/>
		</linearGradient>
		<path style="fill:url(#SVGID_00000108277609538464374520000017402122301455815092_);stroke:#000000;stroke-miterlimit:10;" d="
			M538.4,3.2h16.9v32.7l4.7-2.2c5.4-2.6,9.3-10.2,9.4-27.2c0-1,0-2.1-0.1-3.2h17.2c0.1,2.6,0.1,5.3,0.1,7.8
			c0,12.7-2.7,25.8-12.1,34.2l3.9,10.5c3.1,8.2,5.8,9.1,11.2,9.1V84c-2.3,0.3-4.5,0.4-6.4,0.4c-10.4,0-15.9-7.8-24-31.9l-4,2v29.2
			h-16.9L538.4,3.2L538.4,3.2L538.4,3.2z"/>
		
			<linearGradient id="SVGID_00000101099793963283418320000000037574723294450366_" gradientUnits="userSpaceOnUse" x1="595.6288" y1="273.006" x2="638.3631" y2="273.006" gradientTransform="matrix(1 0 0 1 0 -229.52)">
			<stop  offset="0.21" style="stop-color:#CE9C1A"/>
			<stop  offset="0.31" style="stop-color:#D1AB31"/>
			<stop  offset="0.45" style="stop-color:#D6BD4E"/>
			<stop  offset="0.53" style="stop-color:#D8C559"/>
			<stop  offset="0.71" style="stop-color:#D7C357"/>
			<stop  offset="0.77" style="stop-color:#D6BF50"/>
			<stop  offset="0.82" style="stop-color:#D4B744"/>
			<stop  offset="0.86" style="stop-color:#D2AC33"/>
			<stop  offset="0.89" style="stop-color:#CE9E1E"/>
			<stop  offset="0.89" style="stop-color:#CE9C1A"/>
		</linearGradient>
		<path style="fill:url(#SVGID_00000101099793963283418320000000037574723294450366_);stroke:#000000;stroke-miterlimit:10;" d="
			M638.4,3.2v18.5h-25.9v12.6h20.2v17.9h-20.2v13.2H638v18.3h-42.4V3.2H638.4L638.4,3.2z"/>
		
			<linearGradient id="SVGID_00000140732739185594442270000012327985580482791059_" gradientUnits="userSpaceOnUse" x1="639.6492" y1="273.006" x2="696.1954" y2="273.006" gradientTransform="matrix(1 0 0 1 0 -229.52)">
			<stop  offset="0.21" style="stop-color:#CE9C1A"/>
			<stop  offset="0.29" style="stop-color:#D1AB31"/>
			<stop  offset="0.41" style="stop-color:#D6BD4E"/>
			<stop  offset="0.48" style="stop-color:#D8C559"/>
			<stop  offset="0.68" style="stop-color:#D7C357"/>
			<stop  offset="0.76" style="stop-color:#D6BF50"/>
			<stop  offset="0.81" style="stop-color:#D4B744"/>
			<stop  offset="0.85" style="stop-color:#D2AC33"/>
			<stop  offset="0.89" style="stop-color:#CE9E1E"/>
			<stop  offset="0.89" style="stop-color:#CE9C1A"/>
		</linearGradient>
		<path style="fill:url(#SVGID_00000140732739185594442270000012327985580482791059_);stroke:#000000;stroke-miterlimit:10;" d="
			M659.6,83.7V57.8L639.6,3.2h18.5l9.7,32.9h0.6l9.3-32.9h18.4l-19.9,54.6v25.9H659.6z"/>
	</g>
</g>
</svg>
