<?xml version="1.0" encoding="utf-8"?>
<!-- Generator: Adobe Illustrator 27.3.1, SVG Export Plug-In . SVG Version: 6.00 Build 0)  -->
<svg version="1.1" id="Layer_2_00000142163704549949351150000009210354090928023936_"
	 xmlns="http://www.w3.org/2000/svg" xmlns:xlink="http://www.w3.org/1999/xlink" x="0px" y="0px" viewBox="0 0 244.9 70.5"
	 style="enable-background:new 0 0 244.9 70.5;" xml:space="preserve">
<style type="text/css">
	.st0{fill:url(#SVGID_1_);stroke:#D8C559;stroke-width:10;stroke-miterlimit:10;}
	.st1{fill:#D8C559;stroke:#D8C559;stroke-miterlimit:10;}
</style>
<g id="Layer_2-2">
	
		<linearGradient id="SVGID_1_" gradientUnits="userSpaceOnUse" x1="5.4902" y1="-20.4527" x2="239.8701" y2="-20.4527" gradientTransform="matrix(1 0 0 -1 0 15.0647)">
		<stop  offset="0" style="stop-color:#006837"/>
		<stop  offset="9.000000e-02" style="stop-color:#00713A"/>
		<stop  offset="0.25" style="stop-color:#008A42"/>
		<stop  offset="0.29" style="stop-color:#009245"/>
		<stop  offset="0.67" style="stop-color:#006837"/>
		<stop  offset="0.83" style="stop-color:#009245"/>
	</linearGradient>
	<rect x="5.5" y="5.5" class="st0" width="234.4" height="60"/>
	<path class="st1" d="M46.4,51v-3.4l2.5-3.8h-2.5V23.2l2.5-4h11.7l8.4,5.1v6.9l-1.5,2.1h1.5v16.7l-2.6,3.8h-20L46.4,51L46.4,51z
		 M61,49h6.5V34.5H57v-9.8h3.7v5.4h6.7V25l-7.5-4.6h-9.7v18.5h10.5v5.8H50.3V49C50.3,49,61,49,61,49z"/>
	<path class="st1" d="M67.5,50.2v-27l2.5-4h12.2l8.2,5.4v17.9l-2.6,3.8h-8v3.8l-2.6,3.8h-9.7L67.5,50.2L67.5,50.2z M78.3,49v-7.6
		h10.6V25.2l-7.4-4.9H71.4V49L78.3,49L78.3,49z M78.3,24.5H82v12.6h-3.7C78.3,37.1,78.3,24.5,78.3,24.5z"/>
	<path class="st1" d="M88.9,49.4V23.2l2.9-4h9.3v30.9l-3.1,3.7h-9.1L88.9,49.4L88.9,49.4z M99.6,49V20.4h-6.8V49H99.6z"/>
	<path class="st1" d="M99.7,50V23.3l2.5-4h9.7v24.3h6.6v6.5l-2.6,3.8H99.7L99.7,50L99.7,50z M117,49v-4.2h-6.6V20.5h-6.7V49
		C103.6,49,117,49,117,49z"/>
	<path class="st1" d="M127.8,49.4V23.2l2.9-4h9.3v30.9l-3.1,3.7h-9.1L127.8,49.4L127.8,49.4z M138.5,49V20.4h-6.8V49H138.5z"/>
	<path class="st1" d="M138.5,46.6V23.1l2.5-4h11.8l8.3,5.1v7.4l-1.3,1.8h1.3v16.6l-2.6,3.8h-12.1l-7.8-4.8L138.5,46.6L138.5,46.6z
		 M149.4,49h10.2V34.6h-8.1V39h1.4v5.8h-3.7V24.6h3.7v5.9h6.7v-5.7l-7.4-4.6h-9.8v24.4L149.4,49L149.4,49z"/>
	<path class="st1" d="M159.7,50.5V23.2l2.5-4h11.8l8.4,5v7.1l-0.6,0.9l-0.6,0.9l-1.2,1.8v5.1l-2.4,3.5h4.9v6.5l-2.6,3.8h-20
		L159.7,50.5L159.7,50.5z M180.8,49v-4.3h-10.5V39h8v-4.3h-8V24.6h3.7v5.7h6.8v-5.4l-7.5-4.5h-9.8V49L180.8,49L180.8,49z"/>
	<path class="st1" d="M180.9,49.9V23.2l2.5-4h12.1l8.2,5.1v25.8l-2.6,3.8h-9.6v-1.5l-0.9,1.5h-9.7V49.9L180.9,49.9z M191.6,49V24.6
		h3.7V49h6.8V24.9l-7.3-4.5h-10.1V49H191.6L191.6,49z"/>
</g>
</svg>
