<?xml version="1.0" encoding="UTF-8"?><svg id="Layer_2" xmlns="http://www.w3.org/2000/svg" width="267.92" height="95.81" xmlns:xlink="http://www.w3.org/1999/xlink" viewBox="0 0 267.92 95.81"><defs><style>.cls-1{fill:url(#linear-gradient);stroke-width:10px;}.cls-1,.cls-2{stroke:#d8c559;stroke-miterlimit:10;}.cls-2{fill:#d8c559;}</style><linearGradient id="linear-gradient" x1="5" y1="44.45" x2="262.92" y2="44.45" gradientTransform="translate(0 92.36) scale(1 -1)" gradientUnits="userSpaceOnUse"><stop offset="0" stop-color="#006837"/><stop offset=".09" stop-color="#00713a"/><stop offset=".25" stop-color="#008a42"/><stop offset=".29" stop-color="#009245"/><stop offset=".67" stop-color="#006837"/><stop offset=".83" stop-color="#009245"/></linearGradient></defs><g id="Layer_2-2"><g id="Layer_2-2"><rect class="cls-1" x="5" y="5" width="257.92" height="85.81"/><path class="cls-2" d="m74.39,70v-4.86l2.74-5.46h-2.74v-29.4l2.74-5.68h12.87l9.25,7.33v9.87l-1.65,2.98h1.65v23.93l-2.85,5.46h-22.02v-4.19h0Zm16.1-2.81h7.12v-20.73h-11.5v-13.95h4.11v7.77h7.39v-7.44l-8.27-6.56h-10.62v26.42h11.5v8.32h-11.5v6.18h11.77Z"/><path class="cls-2" d="m102.2,69.45v-30.11h-4.54v-9.04l2.74-5.68h19.93v9.26l-2.9,5.46h-1.54v29.4l-2.85,5.46h-10.84v-4.75h0Zm12.05-2.26v-34.85h4.43v-6.07h-16.7v6.07h4.54v34.85h7.73Z"/><path class="cls-2" d="m118.74,63.39V30.35l2.74-5.68h13.47l8.71,7.72v36.34l-2.9,5.46h-10.4v-2.1l-1.15,2.1h-10.46v-10.81h0Zm11.72,3.81v-14.4h4.16v14.4h7.39v-33.97l-7.83-6.89h-11.12v40.87h7.39,0Zm0-34.8h4.16v13.95h-4.16v-13.95Z"/><path class="cls-2" d="m142.07,70.22V30.3l2.74-5.68h13.03l9.14,7.61v18.53l-1.37,2.37,1.37,1.49v14.12l-2.85,5.46h-10.51v-2.1l-1.04,2.1h-10.51v-3.97h0Zm11.77-3.04v-14.18h4.05v14.18h7.45v-11.91l-4.65-5.19v-.88h4.65v-16.16l-8.16-6.78h-10.79v40.92h7.45,0Zm0-34.85h4.05v13.95h-4.05v-13.95Z"/><path class="cls-2" d="m169.94,69.45v-30.11h-4.54v-9.04l2.74-5.68h19.93v9.26l-2.9,5.46h-1.54v29.4l-2.85,5.46h-10.84v-4.75h0Zm12.05-2.26v-34.85h4.43v-6.07h-16.7v6.07h4.54v34.85h7.73Z"/></g></g></svg>