<?xml version="1.0" encoding="UTF-8"?><svg id="Layer_2" xmlns="http://www.w3.org/2000/svg" width="1921.3" height="917.76" viewBox="0 0 1921.3 917.76"><defs><style>.cls-1{fill:#005518;stroke:#005518;}.cls-1,.cls-2,.cls-3,.cls-4,.cls-5{stroke-miterlimit:10;}.cls-2{fill:#008018;stroke:#008018;}.cls-3,.cls-4{fill:#92583d;}.cls-3,.cls-5{stroke:#563f11;}.cls-4{stroke:#92583d;}.cls-5{fill:#563f11;}</style></defs><g id="Layer_2-2"><path class="cls-5" d="m1683.33,319.87v540.73c28.34,49.3,54.82,0,54.82,0V319.87h-54.82Z"/><ellipse class="cls-1" cx="1626.92" cy="241.28" rx="127.12" ry="105.59"/><ellipse class="cls-1" cx="1793.68" cy="241.28" rx="127.12" ry="105.59"/><ellipse class="cls-1" cx="1718.5" cy="132.09" rx="127.12" ry="105.59"/><path class="cls-5" d="m1266.97,305.22v541.36c32.32,49.36,62.52,0,62.52,0V305.22h-62.52Z"/><ellipse class="cls-1" cx="1202.64" cy="226.53" rx="144.98" ry="105.71"/><ellipse class="cls-1" cx="1392.83" cy="226.53" rx="144.98" ry="105.71"/><ellipse class="cls-1" cx="1307.09" cy="117.21" rx="144.98" ry="105.71"/><path class="cls-5" d="m956.15,308.24v543.25c28,49.53,54.17,0,54.17,0V308.24h-54.17Z"/><ellipse class="cls-1" cx="900.41" cy="229.28" rx="125.61" ry="106.08"/><ellipse class="cls-1" cx="1065.19" cy="229.28" rx="125.61" ry="106.08"/><ellipse class="cls-1" cx="990.91" cy="119.58" rx="125.61" ry="106.08"/><path class="cls-5" d="m204.65,310.09v570.62c31.52,52.02,60.98,0,60.98,0V310.09h-60.98Z"/><ellipse class="cls-1" cx="141.9" cy="227.15" rx="141.4" ry="111.43"/><ellipse class="cls-1" cx="327.4" cy="227.15" rx="141.4" ry="111.43"/><ellipse class="cls-1" cx="243.77" cy="111.93" rx="141.4" ry="111.43"/><path class="cls-5" d="m592.11,310.32v571.05c29.2,52.06,56.49,0,56.49,0V310.32h-56.49Z"/><ellipse class="cls-1" cx="533.99" cy="227.32" rx="130.99" ry="111.51"/><ellipse class="cls-1" cx="705.82" cy="227.32" rx="130.99" ry="111.51"/><ellipse class="cls-1" cx="628.35" cy="112.01" rx="130.99" ry="111.51"/><path class="cls-4" d="m379.65,379.16v506.24c24.36,46.15,47.13,0,47.13,0v-506.24h-47.13Z"/><ellipse class="cls-2" cx="331.15" cy="305.58" rx="109.29" ry="98.86"/><ellipse class="cls-2" cx="474.52" cy="305.58" rx="109.29" ry="98.86"/><ellipse class="cls-2" cx="409.89" cy="203.36" rx="109.29" ry="98.86"/><path class="cls-4" d="m1498.42,390.55v506.2c24.36,46.15,47.13,0,47.13,0v-506.2h-47.13Z"/><ellipse class="cls-2" cx="1449.92" cy="316.98" rx="109.29" ry="98.85"/><ellipse class="cls-2" cx="1593.29" cy="316.98" rx="109.29" ry="98.85"/><ellipse class="cls-2" cx="1528.66" cy="214.76" rx="109.29" ry="98.85"/><path class="cls-4" d="m762.42,384.15v501.78c24.36,45.75,47.13,0,47.13,0v-501.78h-47.13Z"/><ellipse class="cls-2" cx="713.92" cy="311.22" rx="109.29" ry="97.98"/><ellipse class="cls-2" cx="857.29" cy="311.22" rx="109.29" ry="97.98"/><ellipse class="cls-2" cx="792.66" cy="209.9" rx="109.29" ry="97.98"/><path class="cls-3" d="m1122.42,377.83v476.14c24.36,43.41,47.13,0,47.13,0v-476.14h-47.13Z"/><ellipse class="cls-2" cx="1073.92" cy="308.62" rx="109.29" ry="92.98"/><ellipse class="cls-2" cx="1217.29" cy="308.62" rx="109.29" ry="92.98"/><ellipse class="cls-2" cx="1152.66" cy="212.48" rx="109.29" ry="92.98"/></g></svg>