<?xml version="1.0" encoding="utf-8"?>
<!-- Generator: Adobe Illustrator 27.3.1, SVG Export Plug-In . SVG Version: 6.00 Build 0)  -->
<svg version="1.1" id="Layer_2_00000129208120701446527130000006990769191399311024_"
	 xmlns="http://www.w3.org/2000/svg" xmlns:xlink="http://www.w3.org/1999/xlink" x="0px" y="0px" viewBox="0 0 1108 453.1"
	 style="enable-background:new 0 0 1108 453.1;" xml:space="preserve">
<style type="text/css">
	.st0{fill:#563F11;stroke:#563F11;stroke-miterlimit:10;}
	.st1{fill:#92583D;stroke:#92583D;stroke-miterlimit:10;}
	.st2{fill:#92583D;stroke:#563F11;stroke-miterlimit:10;}
</style>
<g id="Layer_2-2">
	<path class="st0" d="M1062.4,11v405.8c20.4,37,39.4,0,39.4,0V11H1062.4z"/>
	<path class="st0" d="M763.3,0v406.3c23.2,37,44.9,0,44.9,0V0H763.3z"/>
	<path class="st0" d="M540,2.3V410c20.1,37.2,38.9,0,38.9,0V2.3H540z"/>
	<path class="st0" d="M0,3.7v428.3c22.6,39,43.8,0,43.8,0V3.7H0z"/>
	<path class="st0" d="M278.4,3.8v428.6c21,39.1,40.6,0,40.6,0V3.8H278.4z"/>
	<path class="st1" d="M125.7,55.5v379.9c17.5,34.6,33.9,0,33.9,0V55.5H125.7z"/>
	<path class="st1" d="M929.6,64V444c17.5,34.6,33.9,0,33.9,0V64H929.6z"/>
	<path class="st1" d="M400.8,59.2v376.6c17.5,34.3,33.9,0,33.9,0V59.2H400.8z"/>
	<path class="st2" d="M659.4,54.5v357.4c17.5,32.6,33.9,0,33.9,0V54.5H659.4z"/>
</g>
</svg>
