<?xml version="1.0" encoding="UTF-8"?>
<svg id="Layer_2" data-name="Layer 2" xmlns="http://www.w3.org/2000/svg" viewBox="0 0 423.5 453.54">
  <defs>
    <style>
      .cls-1, .cls-2 {
        stroke-width: 5px;
      }

      .cls-1, .cls-2, .cls-3, .cls-4, .cls-5, .cls-6, .cls-7 {
        stroke: #000;
        stroke-miterlimit: 10;
      }

      .cls-1, .cls-6 {
        fill: #d89d7c;
      }

      .cls-2, .cls-7 {
        fill: #594138;
      }

      .cls-8 {
        fill: #fffff1;
      }

      .cls-9, .cls-3 {
        fill: #fff;
      }

      .cls-10 {
        fill: #989898;
      }

      .cls-11 {
        fill: #aaaaa9;
      }

      .cls-12 {
        fill: #a57c52;
      }

      .cls-13 {
        fill: #c5876d;
      }

      .cls-14 {
        fill: #233340;
      }

      .cls-15 {
        fill: #72554c;
      }

      .cls-16 {
        fill: #392b26;
      }

      .cls-3 {
        stroke-width: 2px;
      }

      .cls-4 {
        fill: #58272d;
      }

      .cls-5 {
        fill: #c97f7f;
        stroke-width: 1.5px;
      }

      .cls-6 {
        stroke-width: 3px;
      }

      .cls-7 {
        stroke-width: .75px;
      }
    </style>
  </defs>
  <g id="Layer_3" data-name="Layer 3">
    <g id="_ørel" data-name="ørel">
      <path id="_Øre" data-name="Øre" class="cls-6" d="m84.56,195.96c-3.41-9.24-9.03-24.48-20.73-27.31-18.28-4.42-47.78,22.34-42.85,45.37,2.93,13.72,15.87,15.79,18.36,31.73,2.57,16.45-9.44,25.59-2.2,33.56,4.3,4.73,13.23,6.7,19.83,6.01,26.29-2.74,41.93-50.46,27.59-89.36Z"/>
      <path id="_Øre-2" data-name="Øre" class="cls-13" d="m75.15,215.81c-1.96-4.64-5.21-12.3-11.6-13.85-9.99-2.42-25.69,10.53-22.73,22.05,1.76,6.86,8.82,8.06,10.37,16.02,1.6,8.22-4.82,12.62-.78,16.68,2.39,2.41,7.27,3.5,10.85,3.24,14.25-1.04,22.17-24.6,13.89-44.14Z"/>
    </g>
    <g id="_øreh" data-name="øreh">
      <path id="_Øre-3" data-name="Øre" class="cls-6" d="m323.62,203.55c3.41-9.24,9.03-24.48,20.73-27.31,18.28-4.42,47.78,22.34,42.85,45.37-2.93,13.72-15.87,15.79-18.36,31.73-2.57,16.45,9.44,25.59,2.2,33.56-4.3,4.73-13.23,6.7-19.83,6.01-26.29-2.74-41.93-50.46-27.59-89.36Z"/>
      <path id="_Øre-4" data-name="Øre" class="cls-13" d="m333.03,223.41c1.96-4.64,5.21-12.3,11.6-13.85,9.99-2.42,25.69,10.53,22.73,22.05-1.76,6.86-8.82,8.06-10.37,16.02-1.6,8.22,4.82,12.62.78,16.68-2.39,2.41-7.27,3.5-10.85,3.24-14.25-1.04-22.17-24.6-13.89-44.14Z"/>
    </g>
    <path class="cls-1" d="m344.72,255.61c-24.31,73.3-74.61,216.03-163.26,192.93s-96.54-143.52-122.94-219.75C32.13,152.56,120.96,43,204.43,49.81c83.47,6.81,164.61,132.5,140.29,205.8Z"/>
    <g>
      <ellipse class="cls-3" cx="258.92" cy="233.3" rx="33.91" ry="16.77"/>
      <ellipse class="cls-14" cx="260.17" cy="233.53" rx="14.71" ry="17"/>
      <ellipse cx="259.82" cy="231.24" rx="5.74" ry="7.35"/>
      <ellipse class="cls-9" cx="248.33" cy="226.64" rx="3.59" ry="4.59"/>
    </g>
    <g>
      <ellipse class="cls-3" cx="141.81" cy="233.49" rx="33.19" ry="16.59"/>
      <ellipse class="cls-14" cx="143.04" cy="233.71" rx="14.4" ry="16.82"/>
      <ellipse cx="142.69" cy="231.44" rx="5.62" ry="7.27"/>
      <ellipse class="cls-9" cx="131.45" cy="226.89" rx="3.51" ry="4.55"/>
    </g>
    <path class="cls-5" d="m279.1,363.77c-2.96-21.23-48.65-2.2-65.16-15.17-1.53-1.2-7.32-3.5-9.94-2.38-2.62,1.12-5.25,4.37-8.47,3.8-2.91-.52-5.73-3.71-8.39-4.7-2.33-.86-6.95.77-8.33,1.41-15.21,7.1-49.1-5.35-53.35,12.63-4.24,17.98,55.5,32.21,69.53,34.12,15.89,2.17,86.9-9.72,84.11-29.71Z"/>
    <path class="cls-4" d="m131.59,360c47.41.25,94.65,4.93,142.09,2.88-44.35,32.07-98.46,30.95-142.09-2.88Z"/>
    <path class="cls-8" d="m142.71,359.96c.5,1.89,1.49,3.07,2.25,4.76,35.44,15.3,73.98,18.3,110.12,5.93.78-2.44,1.53-4.88,2.1-7.41-39.33,1.35-75.52-2.28-114.47-3.28Z"/>
    <path class="cls-11" d="m145.67,362.06c17.95,4.64,25.95,4.64,25.95,4.64-25.02-1.19-25.95-4.64-25.95-4.64Z"/>
    <path class="cls-11" d="m228.49,369.6c25.02-1.19,25.95-4.64,25.95-4.64-17.95,4.64-25.95,4.64-25.95,4.64"/>
    <path class="cls-7" d="m83.35,199.85c.4-18.43,83.03-10.89,94.24-2.82,3.5,2.52,13.04,6.51,12.28,7.22-6.76,6.24-49.12.96-59.87-2.36-6.93-2.14-46.96,12.19-46.65-2.04Z"/>
    <path class="cls-7" d="m318.67,201.73c-.4-18.43-83.03-10.89-94.24-2.82-3.5,2.52-13.04,6.51-12.28,7.22,6.76,6.24,49.12.96,59.87-2.36,6.93-2.14,46.96,12.19,46.65-2.04Z"/>
    <path d="m191.72,227.02c.7,9.59-.32,19.23-3.08,28.44-1.38,4.61-3.17,9.08-5.38,13.35s-4.7,8.04-6.61,12.28-3.08,8.41-2.54,12.87c.43,3.55,2.08,6.81,4.5,9.43,4.78,5.18,12.69,7.81,19.45,5.26,2.45-.93,4.65-2.32,6.93-3.6s4.63-2.27,7.15-2.91c5.14-1.3,10.53-1.12,15.58.47,1.85.58,2.64-2.32.8-2.89-8.76-2.74-17.93-1.36-25.81,3.18-3.49,2.01-6.84,3.94-10.99,3.73-3.29-.17-6.55-1.53-9.11-3.58s-4.58-4.93-5.33-8.2c-.94-4.12.26-8.47,1.95-12.22,1.85-4.11,4.31-7.9,6.4-11.89s3.94-8.38,5.36-12.77c3.21-9.94,4.47-20.51,3.71-30.92-.14-1.91-3.14-1.93-3,0h0Z"/>
    <path class="cls-10" d="m348.67,283.51c-4.69,2.23-6.85,8.28-5.79,13.16.57,2.61,2.24,4.8,4.77,5.72s5.7.61,8.14-.51c1.32-.6,2.66-1.61,3.32-2.93s.74-3.05-.48-4.06c-.63-.51-1.51-.61-2.12,0-.53.53-.63,1.6,0,2.12.18.15.13.16-.03.52-.18.4-.55.73-.88,1-.95.75-2.22,1.16-3.41,1.31-2.27.28-4.68-.15-5.84-2.31-2.05-3.83-.02-9.61,3.83-11.44.73-.35.92-1.4.54-2.05-.44-.75-1.32-.89-2.05-.54h0Z"/>
    <g>
      <path class="cls-2" d="m148.57,111.08c32.08-9.76,86.83-14.89,101.45,10.85,5.66,9.97-.07,15.1,2.82,33.55,6.93,44.21,50.39,81.86,70.45,74.01,10.71-4.19,7.64-18.57,21.6-25.66,15.35-7.79,25.62,6.24,43.21.99,20.51-6.12,37.15-34.35,31.94-52.3-4.31-14.84-21.32-14.97-23.48-29.6-2.01-13.58,11.94-18.18,12.21-32.56.4-20.9-28.41-45.77-56.36-47.37-21.35-1.22-26.66,12.01-45.09,7.89-21.51-4.81-19.94-24.11-40.39-32.56-30.98-12.8-53.01,23.9-88.3,11.84-20.91-7.14-17.94-22.51-38.51-26.64-27.26-5.47-62.7,11.57-77.03,39.47-10.59,20.63-6.68,41.46-15.03,43.42-9.34,2.19-17.7-23.05-27.24-21.71C8.94,66.37.35,100.96,2.97,131.8c2.6,30.64,17.22,68.93,33.82,69.07,10.28.09,13.22-15.13,29.12-35.52,29.79-38.19,70.51-50.58,82.66-54.27Z"/>
      <path class="cls-16" d="m265.03,145.71c-2.77,20.2,3.65,41.22,18.26,55.65,6.65,6.57,14.78,11.63,23.64,14.62,2.25.76,4.55,1.38,6.88,1.85,2.49.5,5.1.98,7.64.79,4.46-.33,7.87-2.92,9.53-7.04,1.76-4.37,1.17-9.45-1.42-13.36-2.79-4.22-7.31-6.96-12.12-8.29-1.86-.52-2.66,2.38-.8,2.89,7.33,2.03,14.29,8.52,11.88,16.74-1.16,3.96-4.24,6.15-8.37,6.09s-8.62-1.27-12.61-2.63c-16.72-5.71-30.13-19.18-36.24-35.7-3.63-9.8-4.81-20.46-3.39-30.82.11-.81-.2-1.6-1.05-1.85-.7-.2-1.74.25-1.85,1.05h0Z"/>
      <path class="cls-15" d="m341.62,198.58c9.04-5.43,19.97-7.64,30.4-5.82,5.29.92,10.52,3.63,15.98,3.26,4.22-.29,8.95-2.67,10.01-7.11.97-4.07-1.75-9.65-6.49-9.31-1.91.14-1.93,3.14,0,3,3.53-.26,4.43,4.73,2.89,7.09-2.38,3.65-7.37,3.72-11.16,2.87-2.55-.58-5.02-1.47-7.56-2.09-2.24-.55-4.52-.91-6.81-1.13-4.66-.43-9.38-.13-13.96.82-5.22,1.08-10.25,3.08-14.82,5.82-1.65.99-.15,3.59,1.51,2.59h0Z"/>
      <path class="cls-16" d="m309.73,60.36c6.7,2.32,13.53,4.63,20.67,5s13.68-1.94,20.39-3.87c5.55-1.6,11.44-2.76,17.13-1.11,2.5.73,4.78,2.03,6.54,3.96,2.21,2.42,3.42,5.58,5.43,8.15,4.02,5.17,10.59,7.73,17.05,6.78,1.9-.28,1.09-3.17-.8-2.89-5.7.84-11.48-2.02-14.64-6.75-1.72-2.57-3-5.43-5.17-7.68-1.83-1.9-4.13-3.26-6.6-4.14-12.43-4.4-24.05,4.1-36.3,4.57-7.9.3-15.53-2.37-22.89-4.91-1.83-.63-2.61,2.26-.8,2.89h0Z"/>
      <path class="cls-15" d="m89.17,127.76c-13.89-.05-25.5,9.01-34.12,19.11-2.29,2.68-4.43,5.49-6.46,8.37-2.17,3.09-4.15,6.32-6.62,9.18-4.49,5.2-12.06,9.55-18.32,4.5-2.92-2.36-4.94-5.99-5.6-9.67-.35-1.94-.24-4.08.82-5.79.87-1.4,2.5-2.64,4.23-2.36,1.89.31,2.7-2.58.8-2.89-3.56-.58-6.8,1.62-8.19,4.86-1.62,3.77-.65,8.1,1.03,11.67,1.5,3.18,3.91,6.13,7.02,7.85,3.33,1.85,7.27,2.05,10.85.8,7.97-2.79,12.21-10.45,16.81-16.96s9.41-12.11,15.35-16.9c6.39-5.15,14.08-8.79,22.41-8.77,1.93,0,1.93-2.99,0-3h0Z"/>
      <path class="cls-16" d="m43.97,143.07c-6.84,2.17-14.36.21-19.85-4.25s-9.51-11.78-8.04-19.01c.66-3.26,2.54-7.21,6.28-7.62,1.9-.21,1.92-3.21,0-3-8.85.97-10.83,12.23-8.75,19.28,2.42,8.22,9.24,14.79,17.35,17.38,4.47,1.43,9.33,1.54,13.81.12,1.83-.58,1.05-3.48-.8-2.89h0Z"/>
      <path class="cls-16" d="m166.21,103.2c-7.07-1.64-14.19-3.25-21.45-3.69s-13.95.48-20.51,3.08c-11.03,4.37-21.23,12.45-33.61,12.07-5.66-.17-11.34-2.28-14.63-7.1-1.08-1.59-3.68-.09-2.59,1.51,6.3,9.24,18.87,10.09,28.71,6.89,6.36-2.07,12.17-5.49,18.17-8.38,6.44-3.09,13.04-5.1,20.23-5.19,8.43-.1,16.71,1.8,24.88,3.69,1.88.43,2.68-2.46.8-2.89h0Z"/>
      <path class="cls-16" d="m167.53,106.46c18.56-6.39,39.14-7.64,58.09-2.18,9.27,2.67,18.12,6.99,25.69,13,4.17,3.31,7.8,7.12,11.3,11.11,3.86,4.4,7.75,8.88,12.7,12.1,4.69,3.04,11.47,5.56,17,3.35,2.27-.91,4.31-3.07,3.65-5.69-.58-2.29-3.08-4.19-5.34-2.79-1.64,1.01-.13,3.61,1.51,2.59.39-.24.87.54.93,1,.14.96-.83,1.66-1.6,2.02-2.05.93-4.72.74-6.87.29-5.24-1.1-9.7-4.34-13.46-8.03-3.96-3.87-7.34-8.28-11.21-12.23-3.24-3.31-6.82-6.29-10.63-8.92-15.11-10.43-33.81-14.8-52.02-14.18-10.38.35-20.71,2.28-30.54,5.66-1.81.62-1.03,3.52.8,2.89h0Z"/>
      <path class="cls-15" d="m169.48,102.44c18.67-12.54,42.44-17.19,64.42-12.21,10.87,2.47,21.24,7.29,29.87,14.38,5.16,4.24,9.69,9.27,15.38,12.84,5.23,3.29,11.99,5.36,18.06,3.26,5.55-1.92,10.02-7.7,9.63-13.71-.43-6.59-6.18-10.67-11.99-12.48-1.85-.58-2.64,2.32-.8,2.89,4.75,1.49,9.93,4.87,9.81,10.45-.11,5.26-4.6,9.68-9.62,10.52-6.3,1.05-12.47-2.33-17.22-6.11s-9.01-8.29-13.93-11.97c-17.41-13.03-40.1-17.33-61.34-13.81-12.04,2-23.65,6.56-33.78,13.36-1.59,1.07-.09,3.67,1.51,2.59h0Z"/>
      <path class="cls-15" d="m170.09,105.3c-3.74-6.58-10.63-10.23-17.56-12.6-8.51-2.91-17.6-4.27-26.59-4s-17.97,2.8-27.02,4.09c-7.81,1.12-16.38.95-23.28-3.34s-10.78-12.66-8.09-20.27l-.69.9c2.66-1.56,5.83-3.53,9.06-3.05,2.26.33,4.81,2.46,4.45,4.96-.28,1.89,2.61,2.7,2.89.8.65-4.45-2.92-8.29-7.28-8.75-2.6-.27-5.16.59-7.47,1.71-1.08.53-2.41,1.08-3.32,1.86-.81.69-1.01,2.19-1.2,3.2-1.62,8.84,3.67,17.8,11.37,21.96,9.16,4.95,19.91,3.88,29.74,2.01,5.53-1.05,11.03-2.33,16.65-2.82s11.26-.35,16.82.46c5.83.86,11.73,2.33,17.13,4.71,4.76,2.1,9.18,5.09,11.8,9.7.95,1.68,3.55.17,2.59-1.51h0Z"/>
      <path class="cls-15" d="m167.44,97.53c-7.89-13.27-20.57-22.2-33.23-30.5-3.19-2.09-6.4-4.15-9.55-6.31-3.31-2.27-6.61-4.79-8.94-8.12-2.19-3.13-3.53-7-3.16-10.85.18-1.8.63-3.94,2.55-4.55,1.55-.49,3.23-.63,4.85-.59,7.73.19,14.56,5.31,17.9,12.12.85,1.73,3.44.21,2.59-1.51-3.25-6.63-9.57-11.81-16.88-13.2-3.31-.63-7.74-.84-10.76.93-3.55,2.08-3.62,7.61-3.02,11.17,1.5,8.83,8.89,14.26,15.86,18.89s13.78,8.85,20.3,13.81c7.4,5.63,14.12,12.2,18.9,20.24.99,1.66,3.58.15,2.59-1.51h0Z"/>
      <path class="cls-15" d="m169.02,103.19c-1.56-11.15,4.42-22.34,13.1-29.06,9.85-7.63,22.96-9.34,35.05-8.46,13.76,1,26.99,5.36,40.46,8.05,6.22,1.24,12.72,2.24,19,.8,5.42-1.25,10.19-4.6,12.87-9.53,2.85-5.25,2.57-11.45-1.22-16.15s-9.41-6.74-14.73-8.56c-1.83-.63-2.62,2.27-.8,2.89,4.6,1.58,9.54,3.44,12.87,7.16s3.58,9.22,1.02,13.61c-6.82,11.68-22.3,8.27-33.12,5.84-13-2.91-25.94-6.8-39.34-7.28-11.84-.43-24.33,1.88-33.89,9.28s-15.9,19.79-14.17,32.21c.27,1.9,3.16,1.09,2.89-.8h0Z"/>
      <path class="cls-15" d="m51.92,101.7c-8.9-.12-18.66-.26-26.09-5.84-3.03-2.28-5.61-5.41-6.83-9.03-.55-1.64-1.25-4.03-.64-5.73.68-1.89,2.87-.46,3.86.38,1.73,1.47,2.88,3.41,4.81,4.67,1.75,1.14,3.99,1.56,5.76.24,1.53-1.14.03-3.75-1.51-2.59-1.76,1.32-3.86-1.04-4.96-2.3-1.4-1.63-2.84-3.18-4.9-3.96-1.88-.71-3.96-.39-5.21,1.29-1.37,1.84-1.1,4.38-.7,6.5,1.69,9.11,9.98,15.36,18.5,17.64,5.83,1.56,11.93,1.66,17.92,1.74,1.93.03,1.93-2.97,0-3h0Z"/>
      <path class="cls-16" d="m289.45,163.19c8.77-2.54,18.24-2,26.68,1.49,8.89,3.67,15.5,11.07,24.18,15.15,8.19,3.85,17.35,5.64,26.39,4.99,4.26-.31,8.73-.97,12.67-2.67,3.25-1.41,6.58-3.85,7.54-7.44,1.32-4.92-2.4-9.15-6.16-11.77-3.98-2.77-8.96-4.08-13.79-3.61-1.9.18-1.92,3.19,0,3,4.09-.4,8.14.55,11.61,2.76,2.95,1.88,6.71,5.38,5.3,9.27-1.13,3.12-4.79,4.91-7.75,5.81-3.97,1.2-8.18,1.72-12.32,1.78-8.54.12-17.08-1.95-24.59-6.02-3.97-2.15-7.5-4.93-11.11-7.61s-7.25-4.94-11.37-6.6c-8.87-3.58-18.9-4.07-28.08-1.41-1.85.54-1.06,3.43.8,2.89h0Z"/>
      <path class="cls-16" d="m170.33,105.76c-2.59-17.48-1.14-35.54,4.11-52.4,1.48-4.75,3.26-9.41,5.35-13.93.8-1.74-1.78-3.27-2.59-1.51-7.65,16.58-11.45,34.86-11.09,53.12.1,5.2.57,10.38,1.33,15.53.28,1.9,3.17,1.09,2.89-.8h0Z"/>
      <path class="cls-15" d="m272.04,159.64c2.6,4.12,5.14,8.27,7.82,12.33,2.43,3.67,5.1,7.31,8.49,10.16,3.11,2.61,6.81,4.68,10.88,5.29,3.28.49,7.81.18,9.23-3.42,1.68-4.26-2.84-7.22-6.19-8.56-1.79-.71-2.57,2.19-.8,2.89,1.48.59,3.48,1.55,4.16,3.11.74,1.7-.94,2.74-2.37,3.05-3.94.85-8.33-1.21-11.44-3.44-3.68-2.63-6.5-6.32-9-10.04-2.83-4.23-5.48-8.59-8.19-12.89-1.03-1.63-3.62-.13-2.59,1.51h0Z"/>
      <path class="cls-16" d="m71.27,143.41c-7.64,4.76-12.72,12.32-17.43,19.78-2.43,3.85-4.81,7.74-7.5,11.41s-5.99,7.81-10.35,9.7c-4.02,1.74-9.66.57-10.87-4.18-.48-1.87-3.37-1.08-2.89.8,1.1,4.33,5.26,7.02,9.59,7.22,5.24.24,9.82-3.41,13.13-7.08,6.57-7.27,10.89-16.19,16.63-24.07,3.1-4.25,6.71-8.18,11.2-10.98,1.64-1.02.13-3.62-1.51-2.59h0Z"/>
      <path class="cls-16" d="m171.31,98.41c.11-4.25,4.14-6.94,7.51-8.76,4.63-2.5,9.51-4.66,14.46-6.45,9.95-3.59,20.41-5.34,30.96-3.87,19.26,2.69,38.1,13.62,57.94,9.29,8.75-1.91,18.42-8.78,17.72-18.75-.13-1.92-3.14-1.93-3,0,.63,8.93-8.45,14.44-16.13,15.99-9.65,1.94-19.52-.15-28.85-2.7s-19.05-5.84-28.96-6.99c-10.59-1.23-21.18.7-31.13,4.37-5.32,1.96-10.71,4.25-15.6,7.12-4,2.35-7.79,5.79-7.92,10.75-.05,1.93,2.95,1.93,3,0h0Z"/>
      <path class="cls-16" d="m161.74,94.6c-12.25-10.19-27.46-16.53-43.37-17.73-3.99-.3-7.96-.13-11.95-.07s-7.82-.04-11.51-1.35c-7.01-2.49-10.48-9.56-12.78-16.13-1.34-3.83-2.62-7.78-3.21-11.8-.55-3.74-.43-7.98,2.05-11.06,1.2-1.49-.91-3.63-2.12-2.12-4.86,6.05-3.2,14.27-1.13,21.1s4.55,14.35,10.08,19.21c6.39,5.62,14.88,5.23,22.86,5.05s16.56.94,24.5,3.52c8.92,2.89,17.27,7.51,24.47,13.51,1.47,1.23,3.61-.88,2.12-2.12h0Z"/>
      <path class="cls-15" d="m404.52,171.19c3.97-2.64,5.9-7.9,4.55-12.5s-6.06-8.11-10.93-7.64c-.81.08-1.5.63-1.5,1.5,0,.75.69,1.58,1.5,1.5,3.56-.35,7.02,1.99,8.04,5.43.96,3.26-.31,7.2-3.17,9.11-1.6,1.06-.1,3.66,1.51,2.59h0Z"/>
      <path class="cls-15" d="m314.2,85.24c2.03-1.19,4.09-1.44,5.98-.65,2.36.99,4.18,2.94,5.81,4.89,4.43,5.31,7.67,11.54,11.62,17.21,3.61,5.18,8.06,10.95,14.39,12.82,2.63.78,5.44,1.14,8.12,1.7,3.29.68,6.63,1.3,10,1.38,5.18.13,10.36-1.22,14.43-4.53,4.33-3.52,6.54-9.25,4.43-14.61-1.82-4.63-6.63-8.79-11.85-6.94-1.81.64-1.03,3.54.8,2.89,4.23-1.51,7.75,2.65,8.66,6.4,1.1,4.53-1.82,8.78-5.55,11.09-4.59,2.84-10,3.07-15.22,2.31-3.22-.47-6.39-1.23-9.58-1.87-1.68-.34-3.38-.56-4.96-1.28-5.54-2.54-9.34-8.19-12.6-13.1-3.62-5.45-6.8-11.3-11.13-16.24-1.87-2.14-4.1-4.15-6.82-5.1s-5.6-.4-8.06,1.04c-1.66.98-.16,3.57,1.51,2.59h0Z"/>
      <path class="cls-16" d="m189.29,48.15c8.74,3.81,18.8,3.99,27.64.36,4.73-1.94,8.56-4.92,12.4-8.22,1.98-1.7,4-3.37,6.3-4.62s4.62-1.94,7.08-2.39c5.69-1.03,11.58-.37,17.28.26,1.92.21,1.9-2.79,0-3-9.84-1.08-20.34-1.76-28.77,4.39-4.06,2.96-7.49,6.67-11.91,9.13-4.05,2.26-8.61,3.63-13.23,3.99-5.2.41-10.5-.39-15.29-2.48-1.75-.76-3.28,1.82-1.51,2.59h0Z"/>
      <path class="cls-16" d="m163.01,36.36c-5.08.25-9.32-2.56-13.01-5.77-4.03-3.51-7.63-7.5-11.97-10.65-8.22-5.97-19.4-6.98-28.83-3.5-5.43,2-10.28,5.4-13.83,9.99-.5.65-.62,1.49,0,2.12.51.52,1.63.64,2.12,0,6.08-7.87,16.01-11.91,25.87-10.98,4.86.46,9.51,2.26,13.43,5.16,4.14,3.07,7.57,6.98,11.48,10.32,4.18,3.57,9.04,6.59,14.74,6.3,1.92-.1,1.93-3.1,0-3h0Z"/>
      <path class="cls-16" d="m317.18,104.29c2.95-1.73,5.63-1.33,8.31.74,3.26,2.52,5.69,6.27,7.94,9.7,2.77,4.22,5.35,8.57,8.34,12.64,2.69,3.67,5.75,7.35,9.73,9.66,2.75,1.6,5.73,1.98,8.8,2.63,5.14,1.08,10.34,2.25,15.63,1.91,1.92-.12,1.93-3.13,0-3-4.8.31-9.47-.67-14.14-1.65-2.76-.58-5.72-.83-8.25-2.17-3.94-2.09-6.92-5.74-9.49-9.29-2.98-4.12-5.57-8.51-8.38-12.75-2.42-3.65-5-7.47-8.52-10.14s-7.65-3.1-11.49-.85c-1.66.98-.16,3.57,1.51,2.59h0Z"/>
    </g>
    <path class="cls-12" d="m194.59,416.32c-5.97,4.48-5.86,14.35.33,18.61.67.46,1.66.12,2.05-.54.44-.74.13-1.59-.54-2.05-4.22-2.91-4.46-10.33-.33-13.43.65-.49.98-1.3.54-2.05-.37-.64-1.4-1.03-2.05-.54h0Z"/>
  </g>
</svg>