<?xml version="1.0" encoding="UTF-8"?>
<svg id="Layer_2" data-name="Layer 2" xmlns="http://www.w3.org/2000/svg" viewBox="0 0 236.13 251.79">
  <defs>
    <style>
      .cls-1, .cls-2 {
        stroke-width: 5px;
      }

      .cls-1, .cls-2, .cls-3, .cls-4, .cls-5, .cls-6, .cls-7 {
        stroke: #000;
        stroke-miterlimit: 10;
      }

      .cls-1, .cls-6 {
        fill: #d89d7c;
      }

      .cls-2, .cls-7 {
        fill: #594138;
      }

      .cls-8 {
        fill: #fffff1;
      }

      .cls-9, .cls-3 {
        fill: #fff;
      }

      .cls-10 {
        fill: #989898;
      }

      .cls-11 {
        fill: #aaaaa9;
      }

      .cls-12 {
        fill: #a57c52;
      }

      .cls-13 {
        fill: #c5876d;
      }

      .cls-14 {
        fill: #233340;
      }

      .cls-15 {
        fill: #72554c;
      }

      .cls-16 {
        fill: #392b26;
      }

      .cls-3 {
        stroke-width: 2px;
      }

      .cls-4 {
        fill: #58272d;
      }

      .cls-5 {
        fill: #c97f7f;
        stroke-width: 1.5px;
      }

      .cls-6 {
        stroke-width: 3px;
      }

      .cls-7 {
        stroke-width: .75px;
      }
    </style>
  </defs>
  <g id="Layer_2-2" data-name="Layer 2">
    <g id="Layer_3" data-name="Layer 3">
      <g id="_ørel" data-name=" ørel">
        <path id="_Øre" data-name=" Øre" class="cls-6" d="m47.82,108.94c-1.88-5.08-4.99-13.47-11.45-15.03-10.1-2.43-26.39,12.29-23.67,24.96,1.62,7.55,8.76,8.69,10.14,17.46,1.42,9.05-5.21,14.08-1.22,18.46,2.37,2.6,7.31,3.69,10.95,3.31,14.52-1.51,23.16-27.76,15.24-49.17Z"/>
        <path id="_Øre-2" data-name=" Øre-2" class="cls-13" d="m42.62,119.86c-1.08-2.55-2.88-6.77-6.41-7.62-5.52-1.33-14.19,5.79-12.55,12.13.97,3.77,4.87,4.43,5.73,8.81.88,4.52-2.66,6.94-.43,9.18,1.32,1.33,4.02,1.93,5.99,1.78,7.87-.57,12.24-13.54,7.67-24.29h0Z"/>
      </g>
      <g id="_øreh" data-name=" øreh">
        <path id="_Øre-3" data-name=" Øre-3" class="cls-6" d="m179.85,113.12c1.88-5.08,4.99-13.47,11.45-15.03,10.1-2.43,26.39,12.29,23.67,24.96-1.62,7.55-8.76,8.69-10.14,17.46-1.42,9.05,5.21,14.08,1.22,18.46-2.37,2.6-7.31,3.69-10.95,3.31-14.52-1.51-23.16-27.76-15.24-49.17h0Z"/>
        <path id="_Øre-4" data-name=" Øre-4" class="cls-13" d="m185.05,124.05c1.08-2.55,2.88-6.77,6.41-7.62,5.52-1.33,14.19,5.79,12.55,12.13-.97,3.77-4.87,4.43-5.73,8.81-.88,4.52,2.66,6.94.43,9.18-1.32,1.33-4.02,1.93-5.99,1.78-7.87-.57-12.24-13.54-7.67-24.29h0Z"/>
      </g>
      <path class="cls-1" d="m191.5,141.76c-13.43,40.33-41.21,118.86-90.17,106.15s-53.32-78.97-67.9-120.91C18.87,85.06,67.93,24.78,114.02,28.53c46.1,3.75,90.91,72.9,77.48,113.23h0Z"/>
      <g>
        <ellipse class="cls-3" cx="144.12" cy="129.49" rx="18.73" ry="9.23"/>
        <ellipse class="cls-14" cx="144.81" cy="129.61" rx="8.12" ry="9.35"/>
        <ellipse cx="144.62" cy="128.35" rx="3.17" ry="4.04"/>
        <ellipse class="cls-9" cx="138.27" cy="125.82" rx="1.98" ry="2.53"/>
      </g>
      <g>
        <ellipse class="cls-3" cx="79.44" cy="129.59" rx="18.33" ry="9.13"/>
        <ellipse class="cls-14" cx="80.12" cy="129.71" rx="7.95" ry="9.25"/>
        <ellipse cx="79.93" cy="128.46" rx="3.1" ry="4"/>
        <ellipse class="cls-9" cx="73.72" cy="125.96" rx="1.94" ry="2.5"/>
      </g>
      <path class="cls-5" d="m155.26,201.27c-1.63-11.68-26.87-1.21-35.99-8.35-.84-.66-4.04-1.93-5.49-1.31s-2.9,2.4-4.68,2.09c-1.61-.29-3.16-2.04-4.63-2.59-1.29-.47-3.84.42-4.6.78-8.4,3.91-27.12-2.94-29.46,6.95-2.34,9.89,30.65,17.72,38.4,18.77,8.78,1.19,47.99-5.35,46.45-16.35h0Z"/>
      <path class="cls-4" d="m73.8,199.2c26.18.14,52.27,2.71,78.47,1.58-24.49,17.65-54.38,17.03-78.47-1.58Z"/>
      <path class="cls-8" d="m79.94,199.18c.28,1.04.82,1.69,1.24,2.62,19.57,8.42,40.86,10.07,60.82,3.26.43-1.34.84-2.69,1.16-4.08-21.72.74-41.71-1.25-63.22-1.8h0Z"/>
      <path class="cls-11" d="m81.57,200.33c9.91,2.55,14.33,2.55,14.33,2.55-13.82-.65-14.33-2.55-14.33-2.55Z"/>
      <path class="cls-11" d="m127.31,204.48c13.82-.65,14.33-2.55,14.33-2.55-9.91,2.55-14.33,2.55-14.33,2.55"/>
      <path class="cls-7" d="m47.15,111.08c.22-10.14,45.86-5.99,52.05-1.55,1.93,1.39,7.2,3.58,6.78,3.97-3.73,3.43-27.13.53-33.07-1.3-3.83-1.18-25.94,6.71-25.76-1.12Z"/>
      <path class="cls-7" d="m177.12,112.12c-.22-10.14-45.86-5.99-52.05-1.55-1.93,1.39-7.2,3.58-6.78,3.97,3.73,3.43,27.13.53,33.07-1.3,3.83-1.18,25.94,6.71,25.76-1.12Z"/>
      <path d="m107,126.03c.39,5.28-.18,10.58-1.7,15.65-.76,2.54-1.75,5-2.97,7.35s-2.6,4.42-3.65,6.76-1.7,4.63-1.4,7.08c.24,1.95,1.15,3.75,2.49,5.19,2.64,2.85,7.01,4.3,10.74,2.89,1.35-.51,2.57-1.28,3.83-1.98s2.56-1.25,3.95-1.6c2.84-.72,5.82-.62,8.6.26,1.02.32,1.46-1.28.44-1.59-4.84-1.51-9.9-.75-14.25,1.75-1.93,1.11-3.78,2.17-6.07,2.05-1.82-.09-3.62-.84-5.03-1.97s-2.53-2.71-2.94-4.51c-.52-2.27.14-4.66,1.08-6.72,1.02-2.26,2.38-4.35,3.53-6.54s2.18-4.61,2.96-7.03c1.77-5.47,2.47-11.28,2.05-17.01-.08-1.05-1.73-1.06-1.66,0h0v-.02Z"/>
      <path class="cls-10" d="m193.69,157.11c-2.59,1.23-3.78,4.56-3.2,7.24.31,1.44,1.24,2.64,2.63,3.15s3.15.34,4.5-.28c.73-.33,1.47-.89,1.83-1.61s.41-1.68-.27-2.23c-.35-.28-.83-.34-1.17,0-.29.29-.35.88,0,1.17.1.08.07.09-.02.29-.1.22-.3.4-.49.55-.52.41-1.23.64-1.88.72-1.25.15-2.58-.08-3.23-1.27-1.13-2.11-.01-5.29,2.12-6.29.4-.19.51-.77.3-1.13-.24-.41-.73-.49-1.13-.3h0Z"/>
      <g>
        <path class="cls-2" d="m83.17,62.24c17.72-5.37,47.95-8.19,56.03,5.97,3.13,5.49-.04,8.31,1.56,18.46,3.83,24.32,27.83,45.04,38.91,40.72,5.91-2.31,4.22-10.22,11.93-14.12,8.48-4.29,14.15,3.43,23.86.54,11.33-3.37,20.52-18.9,17.64-28.78-2.38-8.17-11.77-8.24-12.97-16.29-1.11-7.47,6.59-10,6.74-17.91.22-11.5-15.69-25.18-31.13-26.06-11.79-.67-14.72,6.61-24.9,4.34-11.88-2.65-11.01-13.27-22.31-17.91-17.11-7.04-29.28,13.15-48.77,6.51-11.55-3.93-9.91-12.39-21.27-14.66C63.45.05,43.88,9.43,35.96,24.78c-5.85,11.35-3.69,22.81-8.3,23.89-5.16,1.2-9.78-12.68-15.04-11.95-6.56.92-11.31,19.95-9.86,36.92,1.44,16.86,9.51,37.93,18.68,38,5.68.05,7.3-8.32,16.08-19.54,16.45-21.01,38.94-27.83,45.65-29.86h0Z"/>
        <path class="cls-16" d="m147.49,81.29c-1.53,11.11,2.02,22.68,10.08,30.62,3.67,3.61,8.16,6.4,13.06,8.04,1.24.42,2.51.76,3.8,1.02,1.38.28,2.82.54,4.22.43,2.46-.18,4.35-1.61,5.26-3.87.97-2.4.65-5.2-.78-7.35-1.54-2.32-4.04-3.83-6.69-4.56-1.03-.29-1.47,1.31-.44,1.59,4.05,1.12,7.89,4.69,6.56,9.21-.64,2.18-2.34,3.38-4.62,3.35s-4.76-.7-6.96-1.45c-9.23-3.14-16.64-10.55-20.01-19.64-2-5.39-2.66-11.26-1.87-16.96.06-.45-.11-.88-.58-1.02-.39-.11-.96.14-1.02.58h.01Z"/>
        <path class="cls-15" d="m189.79,110.38c4.99-2.99,11.03-4.2,16.79-3.2,2.92.51,5.81,2,8.83,1.79,2.33-.16,4.94-1.47,5.53-3.91.54-2.24-.97-5.31-3.58-5.12-1.05.08-1.07,1.73,0,1.65,1.95-.14,2.45,2.6,1.6,3.9-1.31,2.01-4.07,2.05-6.16,1.58-1.41-.32-2.77-.81-4.18-1.15-1.24-.3-2.5-.5-3.76-.62-2.57-.24-5.18-.07-7.71.45-2.88.59-5.66,1.69-8.18,3.2-.91.54-.08,1.98.83,1.43h0Z"/>
        <path class="cls-16" d="m172.18,34.33c3.7,1.28,7.47,2.55,11.42,2.75s7.56-1.07,11.26-2.13c3.07-.88,6.32-1.52,9.46-.61,1.38.4,2.64,1.12,3.61,2.18,1.22,1.33,1.89,3.07,3,4.48,2.22,2.84,5.85,4.25,9.42,3.73,1.05-.15.6-1.74-.44-1.59-3.15.46-6.34-1.11-8.09-3.71-.95-1.41-1.66-2.99-2.86-4.23-1.01-1.05-2.28-1.79-3.65-2.28-6.86-2.42-13.28,2.26-20.05,2.51-4.36.17-8.58-1.3-12.64-2.7-1.01-.35-1.44,1.24-.44,1.59h0Z"/>
        <path class="cls-15" d="m50.37,71.42c-7.67-.03-14.08,4.96-18.84,10.51-1.26,1.47-2.45,3.02-3.57,4.61-1.2,1.7-2.29,3.48-3.66,5.05-2.48,2.86-6.66,5.25-10.12,2.48-1.61-1.3-2.73-3.3-3.09-5.32-.19-1.07-.13-2.24.45-3.19.48-.77,1.38-1.45,2.34-1.3,1.04.17,1.49-1.42.44-1.59-1.97-.32-3.76.89-4.52,2.67-.89,2.07-.36,4.46.57,6.42.83,1.75,2.16,3.37,3.88,4.32,1.84,1.02,4.02,1.13,5.99.44,4.4-1.54,6.74-5.75,9.28-9.33s5.2-6.66,8.48-9.3c3.53-2.83,7.78-4.84,12.38-4.83,1.07,0,1.07-1.65,0-1.65h0Z"/>
        <path class="cls-16" d="m25.4,79.84c-3.78,1.19-7.93.12-10.96-2.34s-5.25-6.48-4.44-10.46c.36-1.79,1.4-3.97,3.47-4.19,1.05-.12,1.06-1.77,0-1.65-4.89.53-5.98,6.73-4.83,10.61,1.34,4.52,5.1,8.14,9.58,9.56,2.47.79,5.15.85,7.63.07,1.01-.32.58-1.91-.44-1.59h0Z"/>
        <path class="cls-16" d="m92.92,57.91c-3.9-.9-7.84-1.79-11.85-2.03s-7.7.26-11.33,1.69c-6.09,2.4-11.72,6.85-18.56,6.64-3.13-.09-6.26-1.25-8.08-3.91-.6-.87-2.03-.05-1.43.83,3.48,5.08,10.42,5.55,15.86,3.79,3.51-1.14,6.72-3.02,10.03-4.61,3.56-1.7,7.2-2.81,11.17-2.86,4.66-.06,9.23.99,13.74,2.03,1.04.24,1.48-1.35.44-1.59h0Z"/>
        <path class="cls-16" d="m93.64,59.7c10.25-3.52,21.62-4.2,32.08-1.2,5.12,1.47,10.01,3.85,14.19,7.15,2.3,1.82,4.31,3.92,6.24,6.11,2.13,2.42,4.28,4.89,7.01,6.66,2.59,1.67,6.33,3.06,9.39,1.84,1.25-.5,2.38-1.69,2.02-3.13-.32-1.26-1.7-2.31-2.95-1.54-.91.56-.07,1.99.83,1.43.22-.13.48.3.51.55.08.53-.46.91-.88,1.11-1.13.51-2.61.41-3.79.16-2.89-.61-5.36-2.39-7.43-4.42-2.19-2.13-4.05-4.56-6.19-6.73-1.79-1.82-3.77-3.46-5.87-4.91-8.35-5.74-18.67-8.14-28.73-7.8-5.73.19-11.44,1.25-16.87,3.11-1,.34-.57,1.94.44,1.59h0Z"/>
        <path class="cls-15" d="m94.72,57.49c10.31-6.9,23.44-9.46,35.58-6.72,6,1.36,11.73,4.01,16.5,7.91,2.85,2.33,5.35,5.1,8.49,7.06,2.89,1.81,6.62,2.95,9.97,1.79,3.07-1.06,5.53-4.24,5.32-7.54-.24-3.63-3.41-5.87-6.62-6.87-1.02-.32-1.46,1.28-.44,1.59,2.62.82,5.48,2.68,5.42,5.75-.06,2.89-2.54,5.33-5.31,5.79-3.48.58-6.89-1.28-9.51-3.36s-4.98-4.56-7.69-6.59c-9.62-7.17-22.15-9.54-33.88-7.6-6.65,1.1-13.06,3.61-18.66,7.35-.88.59-.05,2.02.83,1.43h0Z"/>
        <path class="cls-15" d="m95.06,59.06c-2.07-3.62-5.87-5.63-9.7-6.93-4.7-1.6-9.72-2.35-14.69-2.2s-9.92,1.54-14.92,2.25c-4.31.62-9.05.52-12.86-1.84-3.81-2.36-5.95-6.97-4.47-11.15l-.38.5c1.47-.86,3.22-1.94,5-1.68,1.25.18,2.66,1.35,2.46,2.73-.15,1.04,1.44,1.49,1.6.44.36-2.45-1.61-4.56-4.02-4.81-1.44-.15-2.85.32-4.13.94-.6.29-1.33.59-1.83,1.02-.45.38-.56,1.2-.66,1.76-.89,4.86,2.03,9.79,6.28,12.08,5.06,2.72,11,2.13,16.42,1.11,3.05-.58,6.09-1.28,9.2-1.55s6.22-.19,9.29.25c3.22.47,6.48,1.28,9.46,2.59,2.63,1.16,5.07,2.8,6.52,5.34.52.92,1.96.09,1.43-.83h0Z"/>
        <path class="cls-15" d="m93.6,54.79c-4.36-7.3-11.36-12.21-18.35-16.78-1.76-1.15-3.53-2.28-5.27-3.47-1.83-1.25-3.65-2.64-4.94-4.47-1.21-1.72-1.95-3.85-1.75-5.97.1-.99.35-2.17,1.41-2.5.86-.27,1.78-.35,2.68-.32,4.27.1,8.04,2.92,9.89,6.67.47.95,1.9.12,1.43-.83-1.79-3.65-5.29-6.5-9.32-7.26-1.83-.35-4.27-.46-5.94.51-1.96,1.14-2,4.19-1.67,6.15.83,4.86,4.91,7.85,8.76,10.39,3.85,2.55,7.61,4.87,11.21,7.6,4.09,3.1,7.8,6.71,10.44,11.14.55.91,1.98.08,1.43-.83h0Z"/>
        <path class="cls-15" d="m94.47,57.9c-.86-6.13,2.44-12.29,7.23-15.99,5.44-4.2,12.68-5.14,19.36-4.65,7.6.55,14.91,2.95,22.35,4.43,3.44.68,7.03,1.23,10.49.44,2.99-.69,5.63-2.53,7.11-5.24,1.57-2.89,1.42-6.3-.67-8.89s-5.2-3.71-8.14-4.71c-1.01-.35-1.45,1.25-.44,1.59,2.54.87,5.27,1.89,7.11,3.94s1.98,5.07.56,7.49c-3.77,6.43-12.32,4.55-18.29,3.21-7.18-1.6-14.33-3.74-21.73-4.01-6.54-.24-13.44,1.03-18.72,5.11s-8.78,10.89-7.83,17.72c.15,1.05,1.75.6,1.6-.44h0Z"/>
        <path class="cls-15" d="m29.8,57.08c-4.92-.07-10.31-.14-14.41-3.21-1.67-1.25-3.1-2.98-3.77-4.97-.3-.9-.69-2.22-.35-3.15.38-1.04,1.59-.25,2.13.21.96.81,1.59,1.88,2.66,2.57.97.63,2.2.86,3.18.13.84-.63.02-2.06-.83-1.43-.97.73-2.13-.57-2.74-1.27-.77-.9-1.57-1.75-2.71-2.18-1.04-.39-2.19-.21-2.88.71-.76,1.01-.61,2.41-.39,3.58.93,5.01,5.51,8.45,10.22,9.71,3.22.86,6.59.91,9.9.96,1.07.02,1.07-1.63,0-1.65h0Z"/>
        <path class="cls-16" d="m160.98,90.91c4.84-1.4,10.07-1.1,14.73.82,4.91,2.02,8.56,6.09,13.35,8.34,4.52,2.12,9.58,3.1,14.57,2.75,2.35-.17,4.82-.53,7-1.47,1.79-.78,3.63-2.12,4.16-4.09.73-2.71-1.33-5.03-3.4-6.48-2.2-1.52-4.95-2.24-7.62-1.99-1.05.1-1.06,1.76,0,1.65,2.26-.22,4.5.3,6.41,1.52,1.63,1.03,3.71,2.96,2.93,5.1-.62,1.72-2.65,2.7-4.28,3.2-2.19.66-4.52.95-6.8.98-4.72.07-9.43-1.07-13.58-3.31-2.19-1.18-4.14-2.71-6.14-4.19s-4-2.72-6.28-3.63c-4.9-1.97-10.44-2.24-15.51-.78-1.02.3-.59,1.89.44,1.59h0Z"/>
        <path class="cls-16" d="m95.19,59.31c-1.43-9.62-.63-19.55,2.27-28.83.82-2.61,1.8-5.18,2.95-7.66.44-.96-.98-1.8-1.43-.83-4.22,9.12-6.32,19.18-6.12,29.23.06,2.86.31,5.71.73,8.54.15,1.05,1.75.6,1.6-.44h0Z"/>
        <path class="cls-15" d="m151.36,88.96c1.44,2.27,2.84,4.55,4.32,6.78,1.34,2.02,2.82,4.02,4.69,5.59,1.72,1.44,3.76,2.57,6.01,2.91,1.81.27,4.31.1,5.1-1.88.93-2.34-1.57-3.97-3.42-4.71-.99-.39-1.42,1.2-.44,1.59.82.32,1.92.85,2.3,1.71.41.94-.52,1.51-1.31,1.68-2.18.47-4.6-.67-6.32-1.89-2.03-1.45-3.59-3.48-4.97-5.52-1.56-2.33-3.03-4.73-4.52-7.09-.57-.9-2-.07-1.43.83h0Z"/>
        <path class="cls-16" d="m40.48,80.03c-4.22,2.62-7.03,6.78-9.63,10.88-1.34,2.12-2.66,4.26-4.14,6.28s-3.31,4.3-5.72,5.34c-2.22.96-5.34.31-6-2.3-.27-1.03-1.86-.59-1.6.44.61,2.38,2.91,3.86,5.3,3.97,2.89.13,5.42-1.88,7.25-3.9,3.63-4,6.01-8.91,9.18-13.24,1.71-2.34,3.71-4.5,6.19-6.04.91-.56.07-1.99-.83-1.43h0Z"/>
        <path class="cls-16" d="m95.73,55.27c.06-2.34,2.29-3.82,4.15-4.82,2.56-1.38,5.25-2.56,7.99-3.55,5.5-1.98,11.27-2.94,17.1-2.13,10.64,1.48,21.04,7.49,32,5.11,4.83-1.05,10.17-4.83,9.79-10.32-.07-1.06-1.73-1.06-1.66,0,.35,4.91-4.67,7.95-8.91,8.8-5.33,1.07-10.78-.08-15.93-1.49s-10.52-3.21-15.99-3.85c-5.85-.68-11.7.39-17.19,2.4-2.94,1.08-5.91,2.34-8.62,3.92-2.21,1.29-4.3,3.19-4.37,5.91-.03,1.06,1.63,1.06,1.66,0h0Z"/>
        <path class="cls-16" d="m90.45,53.17c-6.77-5.61-15.17-9.09-23.95-9.76-2.2-.17-4.4-.07-6.6-.04s-4.32-.02-6.36-.74c-3.87-1.37-5.79-5.26-7.06-8.87-.74-2.11-1.45-4.28-1.77-6.49-.3-2.06-.24-4.39,1.13-6.09.66-.82-.5-2-1.17-1.17-2.68,3.33-1.77,7.85-.62,11.61s2.51,7.9,5.57,10.57c3.53,3.09,8.22,2.88,12.63,2.78s9.15.52,13.53,1.94c4.93,1.59,9.54,4.13,13.51,7.43.81.68,1.99-.48,1.17-1.17h0Z"/>
        <path class="cls-15" d="m224.53,95.31c2.19-1.45,3.26-4.35,2.51-6.88s-3.35-4.46-6.04-4.2c-.45.04-.83.35-.83.83,0,.41.38.87.83.83,1.97-.19,3.88,1.09,4.44,2.99.53,1.79-.17,3.96-1.75,5.01-.88.58-.06,2.01.83,1.43h0Z"/>
        <path class="cls-15" d="m174.65,48.02c1.12-.65,2.26-.79,3.3-.36,1.3.54,2.31,1.62,3.21,2.69,2.45,2.92,4.24,6.35,6.42,9.47,1.99,2.85,4.45,6.02,7.95,7.05,1.45.43,3,.63,4.48.94,1.82.37,3.66.72,5.52.76,2.86.07,5.72-.67,7.97-2.49,2.39-1.94,3.61-5.09,2.45-8.04-1.01-2.55-3.66-4.84-6.54-3.82-1,.35-.57,1.95.44,1.59,2.34-.83,4.28,1.46,4.78,3.52.61,2.49-1.01,4.83-3.07,6.1-2.53,1.56-5.52,1.69-8.41,1.27-1.78-.26-3.53-.68-5.29-1.03-.93-.19-1.87-.31-2.74-.7-3.06-1.4-5.16-4.51-6.96-7.21-2-3-3.76-6.22-6.15-8.94-1.03-1.18-2.26-2.28-3.77-2.81s-3.09-.22-4.45.57c-.92.54-.09,1.96.83,1.43h.01Z"/>
        <path class="cls-16" d="m105.66,27.62c4.83,2.1,10.38,2.2,15.27.2,2.61-1.07,4.73-2.71,6.85-4.52,1.09-.94,2.21-1.85,3.48-2.54s2.55-1.07,3.91-1.31c3.14-.57,6.4-.2,9.54.14,1.06.12,1.05-1.54,0-1.65-5.43-.59-11.23-.97-15.89,2.42-2.24,1.63-4.14,3.67-6.58,5.02-2.24,1.24-4.76,2-7.31,2.2-2.87.23-5.8-.21-8.44-1.36-.97-.42-1.81,1-.83,1.43h0Z"/>
        <path class="cls-16" d="m91.15,21.13c-2.81.14-5.15-1.41-7.19-3.17-2.23-1.93-4.21-4.13-6.61-5.86-4.54-3.28-10.71-3.84-15.92-1.93-3,1.1-5.68,2.97-7.64,5.5-.28.36-.34.82,0,1.17.28.29.9.35,1.17,0,3.36-4.33,8.84-6.55,14.29-6.04,2.68.25,5.25,1.24,7.42,2.84,2.29,1.69,4.18,3.84,6.34,5.68,2.31,1.96,4.99,3.63,8.14,3.47,1.06-.06,1.07-1.71,0-1.65h0Z"/>
        <path class="cls-16" d="m176.29,58.51c1.63-.95,3.11-.73,4.59.41,1.8,1.39,3.14,3.45,4.39,5.34,1.53,2.32,2.95,4.72,4.61,6.95,1.49,2.02,3.18,4.04,5.37,5.32,1.52.88,3.16,1.09,4.86,1.45,2.84.59,5.71,1.24,8.63,1.05,1.06-.07,1.07-1.72,0-1.65-2.65.17-5.23-.37-7.81-.91-1.52-.32-3.16-.46-4.56-1.19-2.18-1.15-3.82-3.16-5.24-5.11-1.65-2.27-3.08-4.68-4.63-7.02-1.34-2.01-2.76-4.11-4.71-5.58s-4.22-1.71-6.35-.47c-.92.54-.09,1.96.83,1.43h0Z"/>
      </g>
      <path class="cls-12" d="m108.59,230.19c-3.3,2.46-3.24,7.9.18,10.24.37.25.92.07,1.13-.3.24-.41.07-.87-.3-1.13-2.33-1.6-2.46-5.68-.18-7.39.36-.27.54-.72.3-1.13-.2-.35-.77-.57-1.13-.3h0Z"/>
    </g>
  </g>
</svg>